<svg xmlns="http://www.w3.org/2000/svg" viewBox="0 0 1837 925"><defs><style>.cls-1{fill:#001b24;}.cls-2{fill:#9f8869;}.cls-3{fill:#b9a88a;}.cls-4{fill:#70903b;}.cls-5{fill:#88a53b;}.cls-6{fill:#94b63e;}.cls-7{fill:#205865;}.cls-8{fill:#299393;}.cls-9{fill:#386e7a;}.cls-10{fill:#c4ebf2;}.cls-11{fill:#90b63d;}.cls-12{fill:#685f40;}.cls-13{fill:#6bc6bd;}.cls-14{fill:#f7eb73;}.cls-15{fill:#9f876b;}.cls-16{fill:#543810;}.cls-17{fill:#08602d;}.cls-18{fill:#068e44;}.cls-19{fill:#836235;}</style></defs><g id="Layer_5" data-name="Layer 5"><rect class="cls-1" width="1837" height="925"/></g><g id="Layer_2" data-name="Layer 2"><path class="cls-2" d="M795,285H579c-.72.11-7,1.2-10,7-3.62,6.88.78,13.67,1,14a14.36,14.36,0,0,0,6,5h45l10,7s-.26,12.5-4,16c-5.17,4.84-11.94,4.13-13,4H542s-8.34,3.51-10,11a15,15,0,0,0,2,11,14.53,14.53,0,0,0,9,6h29l5,7s.63,10.48,3,14c1.52,2.26,5.15,4.65,15,4H844c1-.56,6.26-3.59,7-9,.87-6.32-5-11.23-6-12-9.89-7.94-20.93,1.4-34-6-1.49-.84-10.25-5.81-10-13,.19-5.4,5.39-10.59,13-13h47c5.31-1.27,9.29-5.26,10-10,1-6.5-4.71-11-6-12-6.26-4.93-13.87-3.27-15-3H816c-5-2.1-7.08-4.73-8-7-1.4-3.45,0-5.84-1-10a17.4,17.4,0,0,0-6-9Z" transform="translate(-27 -153)"/><g id="Layer_6" data-name="Layer 6"><circle class="cls-3" cx="681" cy="261" r="38"/><circle class="cls-3" cx="526.5" cy="302.5" r="24"/><circle class="cls-3" cx="617.76" cy="332.27" r="23.31"/><circle class="cls-3" cx="584.18" cy="403.15" r="15.85"/><circle class="cls-3" cx="482.5" cy="357.5" r="15"/><ellipse class="cls-3" cx="575" cy="419" rx="10.5" ry="8.5"/><circle class="cls-3" cx="507.25" cy="317.82" r="16.32"/></g><path class="cls-4" d="M225,788c40.85-42.77,77.22-79,107-108,61.59-59.91,82.41-76.4,115-86,13.05-3.84,54-15.34,98,0,22.38,7.8,26.89,16,78,58,55.71,45.72,95,72.56,103,78,43,29.16,64.42,43.74,89,52,10.47,3.52,64,20.65,130,6,43.89-9.74,71.53-28.7,119-62,73.4-51.49,93.59-86.25,166-121,20-9.58,41-17.78,67-16,30.25,2.07,52.37,16.66,78,34,46.67,31.58,48.16,50.46,85,64,8.33,3.06,30.38,10.9,58,8,39-4.09,51.65-25.64,93-44,32.71-14.52,69.67-21,92-19,62.79,5.51,118.32,86.67,147,192L242,821Z" transform="translate(-27 -153)"/><path class="cls-5" d="M1270,793c38.11-14.2,65.9-30.23,85-43,15.51-10.37,27.19-19.85,45-20,9.24-.08,22.44,2.34,50,23,41.54,31.14,35.35,43.49,57,54,40.66,19.75,100.75-5.27,132-26,20.1-13.33,24-22.08,41-25,30.34-5.22,61,15.28,77,26,20.45,13.68,23.8,21.79,44,31a129.77,129.77,0,0,0,42,11H1263.47Z" transform="translate(-27 -153)"/><path class="cls-6" d="M1064,827c33.48-7.35,55.24-20.36,69-31,15.73-12.17,20.55-20.89,46-41,20.55-16.23,30.82-24.35,43-28,34.85-10.44,67.67,7.54,74,11,17.83,9.77,15.82,15.18,46,41,28.82,24.67,43.23,37,61,40,28.08,4.74,53.08-10.57,75-24,37.25-22.82,36.41-38.87,63-46,30.43-8.16,59.26,5.41,69,10,27.24,12.83,29.87,26.57,56,43,15.28,9.6,38.85,20.3,74,23Z" transform="translate(-27 -153)"/><path class="cls-2" d="M524,285h27c.54.39,7.26,5.36,7,14a17.26,17.26,0,0,1-7,13H527a14.09,14.09,0,0,1-9-6c-2.94-4.68-2.56-11,1-16Z" transform="translate(-27 -153)"/><path class="cls-2" d="M470.81,285h27c.54.39,7.26,5.36,7,14-.25,8-6.31,12.5-7,13h-24a14.09,14.09,0,0,1-9-6c-2.94-4.68-2.56-11,1-16Z" transform="translate(-27 -153)"/><path class="cls-2" d="M491.81,338h27c.54.39,7.26,5.36,7,14-.25,8-6.31,12.5-7,13h-24a14.09,14.09,0,0,1-9-6c-2.94-4.68-2.56-11,1-16Z" transform="translate(-27 -153)"/><path class="cls-2" d="M889.81,312h27c.54.39,7.26,5.36,7,14-.25,8-6.31,12.5-7,13h-24a14.09,14.09,0,0,1-9-6c-2.94-4.68-2.56-11,1-16Z" transform="translate(-27 -153)"/><path class="cls-2" d="M1556.64,438h27c.54.39,7.26,5.36,7,14-.25,8-6.31,12.5-7,13h-24a14.07,14.07,0,0,1-9-6c-2.94-4.68-2.56-11,1-16Z" transform="translate(-27 -153)"/><path class="cls-2" d="M1490.6,437h33.66c.68.39,9.06,5.36,8.73,14-.3,8-7.86,12.5-8.73,13h-29.92c-1.32-.21-7.58-1.35-11.22-6s-3.19-11,1.25-16Z" transform="translate(-27 -153)"/><path class="cls-2" d="M1535.64,372h27c.54.39,7.26,5.36,7,14-.25,8-6.31,12.5-7,13h-24a14.07,14.07,0,0,1-9-6c-2.94-4.68-2.56-11,1-16Z" transform="translate(-27 -153)"/></g><g id="Layer_3" data-name="Layer 3"><polygon class="cls-7" points="370 529 323 683 485 683 441 529 370 529"/><polygon class="cls-8" points="462 365 453 637 517 637 501 365 462 365"/><polygon class="cls-9" points="525 444 525 543 517 556.91 502 557 502 621 536 666 608 676 646 676 646 644 596 644 594 560 574 560 565 549 563 444 525 444"/><rect class="cls-10" x="525" y="454" width="39" height="8"/><rect class="cls-10" x="525" y="477" width="39" height="8"/><rect class="cls-10" x="525" y="500" width="39" height="8"/><rect class="cls-10" x="525" y="524" width="39" height="8"/><path class="cls-11" d="M673,829c-37.77,1.2-61.42-8.75-76-18-18.27-11.59-23.07-22.18-49-38-17.28-10.55-31-18.9-49-20-18.58-1.14-29.14,6.2-80,34-34.82,19-52.22,28.55-56,29-35.09,4.16-70.08-21.12-117-55-18.46-13.33-28.56-22.53-47-25-26.8-3.59-50.06,9.87-57,14-22,13.1-24.16,24.47-47,43a177.2,177.2,0,0,1-52,29Z" transform="translate(-27 -153)"/><path class="cls-12" d="M110,821c60.72,9.53,96.88,27.61,119,43,25.81,18,40.21,26,69,42,14.52,8.08,21.39,11.43,31,14,31.33,8.38,58.42-.43,66-3,22.12-7.5,20.37-14.15,50-29,20.28-10.17,38.91-19.5,60-20,6.48-.15,27.58.19,78,37,45.41,33.15,45,45.06,85,73,31.76,22.17,52.4,36.58,82,37,32.94.47,58.53-16.65,77-29,21.15-14.14,18.86-18.39,60-57,47.38-44.47,65.12-52.63,78-57,9.31-3.16,27.82-9.25,50-7,31.35,3.18,52.37,21.22,88,55,78.81,74.71,86.7,91.37,127,118,28.11,18.57,48.52,31.74,79,36,10.83,1.51,50.09,5.7,118-30,24.17-12.71,31.31-19.61,135-107,51.51-43.42,79.29-66.52,124-89a463.28,463.28,0,0,1,54-23Z" transform="translate(-27 -153)"/><path class="cls-13" d="M1600,860a1028.68,1028.68,0,0,1,134-36L110,821c50.83,1.58,89.32,10.86,115,19,32.79,10.39,48,20,87,27,25.62,4.62,49,8.62,78,3,30.44-5.9,34.41-16.1,65-23,30.93-7,55.93-3.11,76,0,26.45,4.09,36.8,9.79,121,43,54.15,21.36,59.74,22.89,69,24,11.67,1.4,39.39,3.34,104-20,75.26-27.19,75.1-43.36,121-52,44-8.28,80.06-.23,108,6,38.42,8.56,47.9,17.56,128,52,65.92,28.34,98.89,42.52,121,45,42.45,4.77,77-6.15,146-28C1516.61,895.6,1535.25,882.14,1600,860Z" transform="translate(-27 -153)"/></g><g id="Layer_4" data-name="Layer 4"><circle class="cls-14" cx="1123.5" cy="204.5" r="152.5"/><path class="cls-15" d="M1102.27,337.35c8.35-5.51,11.59-15.49,8.69-22.58-3.08-7.51-12-9.23-12.41-9.3a17.09,17.09,0,0,0-9.93,1.33c-.72-1.42-4.53-8.55-12.41-10.63a17.48,17.48,0,0,0-8.69,0,32.38,32.38,0,0,0-3.72-17.26c-6.69-12.06-20.56-16.11-31-14.61-2.79.4-11.31,1.61-17.37,9.29a26.64,26.64,0,0,0-5,10.63,22.16,22.16,0,0,0-6.2-2.66c-7.4-1.87-18.3-.34-21.1,6.65-.5,1.24-1.22,3.84,0,8a11,11,0,0,0-7.45,0c-7.35,2.95-8.95,14.92-8.68,21.26.44,10.55,6.56,17.66,8.68,19.92Z" transform="translate(-27 -153)"/><path class="cls-15" d="M994.12,331.75c.2.7.38,1.4.51,2.11a14.33,14.33,0,0,1,.24,1.93c0,.73.06,1.46,0,2.19s-.11,1.51-.17,1.93a1.55,1.55,0,0,0,1,1.85,1.51,1.51,0,0,0,1.84-1.05A22.52,22.52,0,0,0,997,331a1.5,1.5,0,0,0-2.89.8Z" transform="translate(-27 -153)"/><path class="cls-15" d="M1010,334.08v5.35a1.5,1.5,0,1,0,3,0v-5.35a1.5,1.5,0,1,0-3,0Z" transform="translate(-27 -153)"/><path class="cls-15" d="M1028.7,333.19V343a1.5,1.5,0,0,0,3,0v-9.81a1.51,1.51,0,0,0-1.5-1.5,1.53,1.53,0,0,0-1.5,1.5Z" transform="translate(-27 -153)"/><path class="cls-15" d="M1044,330.51v10.71a1.5,1.5,0,0,0,3,0V330.51a1.5,1.5,0,0,0-3,0Z" transform="translate(-27 -153)"/><path class="cls-15" d="M1060.11,331.41v14.26a1.5,1.5,0,0,0,3,0V331.41a1.5,1.5,0,0,0-3,0Z" transform="translate(-27 -153)"/><path class="cls-15" d="M1076.3,328v20.51a1.5,1.5,0,0,0,3,0V328a1.5,1.5,0,0,0-3,0Z" transform="translate(-27 -153)"/><path class="cls-15" d="M1028.7,358.16v13.38a1.5,1.5,0,0,0,3,0V358.16a1.5,1.5,0,0,0-3,0Z" transform="translate(-27 -153)"/><path class="cls-15" d="M1028.7,381.35v8a1.5,1.5,0,1,0,3,0v-8a1.5,1.5,0,0,0-3,0Z" transform="translate(-27 -153)"/><path class="cls-15" d="M1027,406.32v9.81a1.5,1.5,0,1,0,3,0v-9.81a1.5,1.5,0,1,0-3,0Z" transform="translate(-27 -153)"/><path class="cls-15" d="M1027,433.07v10.7a1.5,1.5,0,0,0,3,0v-10.7a1.5,1.5,0,1,0-3,0Z" transform="translate(-27 -153)"/><path class="cls-15" d="M1027,454.47v8a1.5,1.5,0,0,0,3,0v-8a1.5,1.5,0,0,0-3,0Z" transform="translate(-27 -153)"/><path class="cls-15" d="M1027,477.66v11.6a1.5,1.5,0,0,0,3,0v-11.6a1.5,1.5,0,0,0-3,0Z" transform="translate(-27 -153)"/><path class="cls-15" d="M1027,502.63v11.6a1.5,1.5,0,0,0,3,0v-11.6a1.5,1.5,0,0,0-3,0Z" transform="translate(-27 -153)"/><path class="cls-15" d="M1027,531.17V541a1.5,1.5,0,0,0,3,0v-9.81a1.5,1.5,0,0,0-3,0Z" transform="translate(-27 -153)"/><path class="cls-15" d="M1027,551.68v13.38a1.5,1.5,0,0,0,3,0V551.68a1.5,1.5,0,0,0-3,0Z" transform="translate(-27 -153)"/><path class="cls-15" d="M1027,579.33v7.13a1.5,1.5,0,0,0,3,0v-7.13a1.5,1.5,0,1,0-3,0Z" transform="translate(-27 -153)"/><path class="cls-15" d="M1028.7,604.3V615a1.5,1.5,0,0,0,3,0V604.3a1.5,1.5,0,0,0-3,0Z" transform="translate(-27 -153)"/><path class="cls-15" d="M1043.66,354.67V368a1.5,1.5,0,0,0,3,0V354.67a1.5,1.5,0,0,0-3,0Z" transform="translate(-27 -153)"/><path class="cls-15" d="M1043.66,377.85v8a1.5,1.5,0,0,0,3,0v-8a1.5,1.5,0,0,0-3,0Z" transform="translate(-27 -153)"/><path class="cls-15" d="M1042,402.82v9.81a1.5,1.5,0,1,0,3,0v-9.81a1.5,1.5,0,1,0-3,0Z" transform="translate(-27 -153)"/><path class="cls-15" d="M1042,429.58v10.7a1.5,1.5,0,0,0,3,0v-10.7a1.5,1.5,0,1,0-3,0Z" transform="translate(-27 -153)"/><path class="cls-15" d="M1042,451v8a1.5,1.5,0,0,0,3,0v-8a1.5,1.5,0,0,0-3,0Z" transform="translate(-27 -153)"/><path class="cls-15" d="M1042,474.17v11.59a1.5,1.5,0,0,0,3,0V474.17a1.5,1.5,0,0,0-3,0Z" transform="translate(-27 -153)"/><path class="cls-15" d="M1042,499.14v11.59a1.5,1.5,0,0,0,3,0V499.14a1.5,1.5,0,0,0-3,0Z" transform="translate(-27 -153)"/><path class="cls-15" d="M1042,527.68v9.81a1.5,1.5,0,0,0,3,0v-9.81a1.5,1.5,0,1,0-3,0Z" transform="translate(-27 -153)"/><path class="cls-15" d="M1042,548.19v13.38a1.5,1.5,0,0,0,3,0V548.19a1.5,1.5,0,0,0-3,0Z" transform="translate(-27 -153)"/><path class="cls-15" d="M1042,575.83V583a1.5,1.5,0,0,0,3,0v-7.14a1.5,1.5,0,1,0-3,0Z" transform="translate(-27 -153)"/><path class="cls-15" d="M1043.66,600.81v10.7a1.5,1.5,0,0,0,3,0v-10.7a1.5,1.5,0,0,0-3,0Z" transform="translate(-27 -153)"/><path class="cls-15" d="M1060.28,358.16v13.38a1.5,1.5,0,0,0,3,0V358.16a1.5,1.5,0,0,0-3,0Z" transform="translate(-27 -153)"/><path class="cls-15" d="M1060.28,381.35v8a1.5,1.5,0,1,0,3,0v-8a1.5,1.5,0,0,0-3,0Z" transform="translate(-27 -153)"/><path class="cls-15" d="M1058.58,406.32v9.81a1.5,1.5,0,1,0,3,0v-9.81a1.5,1.5,0,1,0-3,0Z" transform="translate(-27 -153)"/><path class="cls-15" d="M1058.58,433.07v10.7a1.5,1.5,0,0,0,3,0v-10.7a1.5,1.5,0,1,0-3,0Z" transform="translate(-27 -153)"/><path class="cls-15" d="M1058.58,454.47v8a1.5,1.5,0,0,0,3,0v-8a1.5,1.5,0,0,0-3,0Z" transform="translate(-27 -153)"/><path class="cls-15" d="M1058.58,477.66v11.6a1.5,1.5,0,0,0,3,0v-11.6a1.5,1.5,0,0,0-3,0Z" transform="translate(-27 -153)"/><path class="cls-15" d="M1058.58,502.63v11.6a1.5,1.5,0,0,0,3,0v-11.6a1.5,1.5,0,0,0-3,0Z" transform="translate(-27 -153)"/><path class="cls-15" d="M1058.58,531.17V541a1.5,1.5,0,0,0,3,0v-9.81a1.5,1.5,0,0,0-3,0Z" transform="translate(-27 -153)"/><path class="cls-15" d="M1058.58,551.68v13.38a1.5,1.5,0,0,0,3,0V551.68a1.5,1.5,0,0,0-3,0Z" transform="translate(-27 -153)"/><path class="cls-15" d="M1058.58,579.33v7.13a1.5,1.5,0,0,0,3,0v-7.13a1.5,1.5,0,1,0-3,0Z" transform="translate(-27 -153)"/><path class="cls-15" d="M1060.28,604.3V615a1.5,1.5,0,0,0,3,0V604.3a1.5,1.5,0,0,0-3,0Z" transform="translate(-27 -153)"/><path class="cls-15" d="M1075.24,358.16v13.38a1.5,1.5,0,0,0,3,0V358.16a1.5,1.5,0,0,0-3,0Z" transform="translate(-27 -153)"/><path class="cls-15" d="M1075.24,381.35v8a1.5,1.5,0,1,0,3,0v-8a1.5,1.5,0,0,0-3,0Z" transform="translate(-27 -153)"/><path class="cls-15" d="M1073.54,406.32v9.81a1.5,1.5,0,1,0,3,0v-9.81a1.5,1.5,0,1,0-3,0Z" transform="translate(-27 -153)"/><path class="cls-15" d="M1073.54,433.07v10.7a1.5,1.5,0,0,0,3,0v-10.7a1.5,1.5,0,1,0-3,0Z" transform="translate(-27 -153)"/><path class="cls-15" d="M1073.54,454.47v8a1.5,1.5,0,0,0,3,0v-8a1.5,1.5,0,0,0-3,0Z" transform="translate(-27 -153)"/><path class="cls-15" d="M1073.54,477.66v11.6a1.5,1.5,0,0,0,3,0v-11.6a1.5,1.5,0,0,0-3,0Z" transform="translate(-27 -153)"/><path class="cls-15" d="M1073.54,502.63v11.6a1.5,1.5,0,0,0,3,0v-11.6a1.5,1.5,0,0,0-3,0Z" transform="translate(-27 -153)"/><path class="cls-15" d="M1073.54,531.17V541a1.5,1.5,0,0,0,3,0v-9.81a1.5,1.5,0,0,0-3,0Z" transform="translate(-27 -153)"/><path class="cls-15" d="M1073.54,551.68v13.38a1.5,1.5,0,0,0,3,0V551.68a1.5,1.5,0,0,0-3,0Z" transform="translate(-27 -153)"/><path class="cls-15" d="M1073.54,579.33v7.13a1.5,1.5,0,0,0,3,0v-7.13a1.5,1.5,0,1,0-3,0Z" transform="translate(-27 -153)"/><path class="cls-15" d="M1075.24,604.3V615a1.5,1.5,0,0,0,3,0V604.3a1.5,1.5,0,0,0-3,0Z" transform="translate(-27 -153)"/><path class="cls-15" d="M996.29,354.67V368a1.5,1.5,0,0,0,3,0V354.67a1.5,1.5,0,0,0-3,0Z" transform="translate(-27 -153)"/><path class="cls-15" d="M996.29,377.85v8a1.5,1.5,0,1,0,3,0v-8a1.5,1.5,0,1,0-3,0Z" transform="translate(-27 -153)"/><path class="cls-15" d="M994.59,402.82v9.81a1.5,1.5,0,0,0,3,0v-9.81a1.5,1.5,0,0,0-3,0Z" transform="translate(-27 -153)"/><path class="cls-15" d="M994.59,429.58v10.7a1.5,1.5,0,0,0,3,0v-10.7a1.5,1.5,0,0,0-3,0Z" transform="translate(-27 -153)"/><path class="cls-15" d="M994.59,451v8a1.5,1.5,0,0,0,3,0v-8a1.5,1.5,0,0,0-3,0Z" transform="translate(-27 -153)"/><path class="cls-15" d="M994.59,474.17v11.59a1.5,1.5,0,0,0,3,0V474.17a1.5,1.5,0,0,0-3,0Z" transform="translate(-27 -153)"/><path class="cls-15" d="M994.59,499.14v11.59a1.5,1.5,0,0,0,3,0V499.14a1.5,1.5,0,0,0-3,0Z" transform="translate(-27 -153)"/><path class="cls-15" d="M994.59,527.68v9.81a1.5,1.5,0,0,0,3,0v-9.81a1.5,1.5,0,0,0-3,0Z" transform="translate(-27 -153)"/><path class="cls-15" d="M994.59,548.19v13.38a1.5,1.5,0,0,0,3,0V548.19a1.5,1.5,0,0,0-3,0Z" transform="translate(-27 -153)"/><path class="cls-15" d="M994.59,575.83V583a1.5,1.5,0,0,0,3,0v-7.14a1.5,1.5,0,0,0-3,0Z" transform="translate(-27 -153)"/><path class="cls-15" d="M996.29,600.81v10.7a1.5,1.5,0,0,0,3,0v-10.7a1.5,1.5,0,0,0-3,0Z" transform="translate(-27 -153)"/><path class="cls-15" d="M1011.25,351.17v13.38a1.5,1.5,0,0,0,3,0V351.17a1.5,1.5,0,0,0-3,0Z" transform="translate(-27 -153)"/><path class="cls-15" d="M1011.25,374.36v8a1.5,1.5,0,0,0,3,0v-8a1.5,1.5,0,0,0-3,0Z" transform="translate(-27 -153)"/><path class="cls-15" d="M1009.55,399.33v9.81a1.5,1.5,0,1,0,3,0v-9.81a1.5,1.5,0,1,0-3,0Z" transform="translate(-27 -153)"/><path class="cls-15" d="M1009.55,426.09v10.7a1.5,1.5,0,0,0,3,0v-10.7a1.5,1.5,0,1,0-3,0Z" transform="translate(-27 -153)"/><path class="cls-15" d="M1009.55,447.49v8a1.5,1.5,0,0,0,3,0v-8a1.51,1.51,0,0,0-1.5-1.5,1.53,1.53,0,0,0-1.5,1.5Z" transform="translate(-27 -153)"/><path class="cls-15" d="M1009.55,470.68v11.59a1.5,1.5,0,0,0,3,0V470.68a1.5,1.5,0,0,0-3,0Z" transform="translate(-27 -153)"/><path class="cls-15" d="M1009.55,495.65v11.59a1.5,1.5,0,0,0,3,0V495.65a1.5,1.5,0,0,0-3,0Z" transform="translate(-27 -153)"/><path class="cls-15" d="M1009.55,524.18V534a1.5,1.5,0,0,0,3,0v-9.81a1.5,1.5,0,0,0-3,0Z" transform="translate(-27 -153)"/><path class="cls-15" d="M1009.55,544.7v13.37a1.5,1.5,0,0,0,3,0V544.7a1.5,1.5,0,0,0-3,0Z" transform="translate(-27 -153)"/><path class="cls-15" d="M1009.55,572.34v7.14a1.5,1.5,0,0,0,3,0v-7.14a1.5,1.5,0,1,0-3,0Z" transform="translate(-27 -153)"/><path class="cls-15" d="M1011.25,597.31V608a1.5,1.5,0,0,0,3,0v-10.7a1.5,1.5,0,0,0-3,0Z" transform="translate(-27 -153)"/><path class="cls-15" d="M419.06,415.22c8.35-5.51,11.59-15.5,8.69-22.58-3.08-7.51-12-9.23-12.41-9.3a17,17,0,0,0-9.93,1.33c-.72-1.42-4.53-8.56-12.41-10.63a17.36,17.36,0,0,0-8.69,0,32.41,32.41,0,0,0-3.72-17.27c-6.69-12.06-20.56-16.1-31-14.61-2.8.4-11.32,1.62-17.37,9.3a26.58,26.58,0,0,0-5,10.63,22,22,0,0,0-6.2-2.66c-7.4-1.87-18.3-.35-21.1,6.64-.5,1.24-1.22,3.85,0,8a11,11,0,0,0-7.45,0c-7.35,2.95-9,14.91-8.68,21.25.44,10.56,6.56,17.67,8.68,19.93Z" transform="translate(-27 -153)"/><path class="cls-15" d="M310.91,409.62a21.61,21.61,0,0,1,.51,2.11,14.33,14.33,0,0,1,.24,1.93c0,.73.06,1.45,0,2.18s-.11,1.52-.17,1.94a1.54,1.54,0,0,0,1.05,1.84,1.5,1.5,0,0,0,1.84-1,22.52,22.52,0,0,0-.62-9.76,1.5,1.5,0,1,0-2.89.8Z" transform="translate(-27 -153)"/><path class="cls-15" d="M326.82,412v5.35a1.5,1.5,0,0,0,3,0V412a1.5,1.5,0,0,0-3,0Z" transform="translate(-27 -153)"/><path class="cls-15" d="M345.49,411.05v9.81a1.5,1.5,0,0,0,3,0v-9.81a1.5,1.5,0,1,0-3,0Z" transform="translate(-27 -153)"/><path class="cls-15" d="M360.77,408.38v10.7a1.5,1.5,0,0,0,3,0v-10.7a1.5,1.5,0,0,0-3,0Z" transform="translate(-27 -153)"/><path class="cls-15" d="M376.89,409.27v14.27a1.5,1.5,0,0,0,3,0V409.27a1.5,1.5,0,0,0-3,0Z" transform="translate(-27 -153)"/><path class="cls-15" d="M393.09,405.81v20.52a1.5,1.5,0,0,0,3,0V405.81a1.5,1.5,0,0,0-3,0Z" transform="translate(-27 -153)"/><path class="cls-15" d="M345.49,436V449.4a1.5,1.5,0,0,0,3,0V436a1.5,1.5,0,0,0-3,0Z" transform="translate(-27 -153)"/><path class="cls-15" d="M345.49,459.21v8a1.5,1.5,0,0,0,3,0v-8a1.5,1.5,0,0,0-3,0Z" transform="translate(-27 -153)"/><path class="cls-15" d="M343.79,484.18V494a1.5,1.5,0,0,0,3,0v-9.81a1.5,1.5,0,0,0-3,0Z" transform="translate(-27 -153)"/><path class="cls-15" d="M343.79,510.94v10.7a1.5,1.5,0,0,0,3,0v-10.7a1.5,1.5,0,0,0-3,0Z" transform="translate(-27 -153)"/><path class="cls-15" d="M343.79,532.34v8a1.5,1.5,0,0,0,3,0v-8a1.5,1.5,0,0,0-3,0Z" transform="translate(-27 -153)"/><path class="cls-15" d="M343.79,555.53v11.59a1.5,1.5,0,0,0,3,0V555.53a1.5,1.5,0,0,0-3,0Z" transform="translate(-27 -153)"/><path class="cls-15" d="M343.79,580.5v11.59a1.5,1.5,0,0,0,3,0V580.5a1.5,1.5,0,0,0-3,0Z" transform="translate(-27 -153)"/><path class="cls-15" d="M343.79,609v9.81a1.5,1.5,0,0,0,3,0V609a1.5,1.5,0,0,0-3,0Z" transform="translate(-27 -153)"/><path class="cls-15" d="M343.79,629.55v13.37a1.5,1.5,0,0,0,3,0V629.55a1.5,1.5,0,0,0-3,0Z" transform="translate(-27 -153)"/><path class="cls-15" d="M343.79,657.19v7.14a1.5,1.5,0,0,0,3,0v-7.14a1.5,1.5,0,0,0-3,0Z" transform="translate(-27 -153)"/><path class="cls-15" d="M345.49,682.16v10.7a1.5,1.5,0,0,0,3,0v-10.7a1.5,1.5,0,0,0-3,0Z" transform="translate(-27 -153)"/><path class="cls-15" d="M360.45,432.53v13.38a1.5,1.5,0,0,0,3,0V432.53a1.5,1.5,0,0,0-3,0Z" transform="translate(-27 -153)"/><path class="cls-15" d="M360.45,455.72v8a1.5,1.5,0,0,0,3,0v-8a1.51,1.51,0,0,0-1.5-1.5,1.53,1.53,0,0,0-1.5,1.5Z" transform="translate(-27 -153)"/><path class="cls-15" d="M358.75,480.69v9.81a1.5,1.5,0,0,0,3,0v-9.81a1.51,1.51,0,0,0-1.5-1.5,1.53,1.53,0,0,0-1.5,1.5Z" transform="translate(-27 -153)"/><path class="cls-15" d="M358.75,507.44v10.71a1.5,1.5,0,0,0,3,0V507.44a1.5,1.5,0,0,0-3,0Z" transform="translate(-27 -153)"/><path class="cls-15" d="M358.75,528.85v8a1.5,1.5,0,0,0,3,0v-8a1.5,1.5,0,0,0-3,0Z" transform="translate(-27 -153)"/><path class="cls-15" d="M358.75,552v11.6a1.5,1.5,0,0,0,3,0V552a1.5,1.5,0,0,0-3,0Z" transform="translate(-27 -153)"/><path class="cls-15" d="M358.75,577v11.6a1.5,1.5,0,0,0,3,0V577a1.5,1.5,0,0,0-3,0Z" transform="translate(-27 -153)"/><path class="cls-15" d="M358.75,605.54v9.81a1.5,1.5,0,0,0,3,0v-9.81a1.5,1.5,0,0,0-3,0Z" transform="translate(-27 -153)"/><path class="cls-15" d="M358.75,626.05v13.38a1.5,1.5,0,0,0,3,0V626.05a1.5,1.5,0,0,0-3,0Z" transform="translate(-27 -153)"/><path class="cls-15" d="M358.75,653.7v7.13a1.5,1.5,0,0,0,3,0V653.7a1.5,1.5,0,0,0-3,0Z" transform="translate(-27 -153)"/><path class="cls-15" d="M360.45,678.67v10.7a1.5,1.5,0,0,0,3,0v-10.7a1.5,1.5,0,0,0-3,0Z" transform="translate(-27 -153)"/><path class="cls-15" d="M377.07,436V449.4a1.5,1.5,0,0,0,3,0V436a1.5,1.5,0,0,0-3,0Z" transform="translate(-27 -153)"/><path class="cls-15" d="M377.07,459.21v8a1.5,1.5,0,0,0,3,0v-8a1.5,1.5,0,0,0-3,0Z" transform="translate(-27 -153)"/><path class="cls-15" d="M375.37,484.18V494a1.5,1.5,0,0,0,3,0v-9.81a1.5,1.5,0,1,0-3,0Z" transform="translate(-27 -153)"/><path class="cls-15" d="M375.37,510.94v10.7a1.5,1.5,0,0,0,3,0v-10.7a1.5,1.5,0,1,0-3,0Z" transform="translate(-27 -153)"/><path class="cls-15" d="M375.37,532.34v8a1.5,1.5,0,0,0,3,0v-8a1.5,1.5,0,0,0-3,0Z" transform="translate(-27 -153)"/><path class="cls-15" d="M375.37,555.53v11.59a1.5,1.5,0,0,0,3,0V555.53a1.5,1.5,0,0,0-3,0Z" transform="translate(-27 -153)"/><path class="cls-15" d="M375.37,580.5v11.59a1.5,1.5,0,0,0,3,0V580.5a1.5,1.5,0,0,0-3,0Z" transform="translate(-27 -153)"/><path class="cls-15" d="M375.37,609v9.81a1.5,1.5,0,0,0,3,0V609a1.5,1.5,0,0,0-3,0Z" transform="translate(-27 -153)"/><path class="cls-15" d="M375.37,629.55v13.37a1.5,1.5,0,0,0,3,0V629.55a1.5,1.5,0,0,0-3,0Z" transform="translate(-27 -153)"/><path class="cls-15" d="M375.37,657.19v7.14a1.5,1.5,0,0,0,3,0v-7.14a1.5,1.5,0,0,0-3,0Z" transform="translate(-27 -153)"/><path class="cls-15" d="M377.07,682.16v10.7a1.5,1.5,0,0,0,3,0v-10.7a1.5,1.5,0,0,0-3,0Z" transform="translate(-27 -153)"/><path class="cls-15" d="M392,436V449.4a1.5,1.5,0,0,0,3,0V436a1.5,1.5,0,0,0-3,0Z" transform="translate(-27 -153)"/><path class="cls-15" d="M392,459.21v8a1.5,1.5,0,0,0,3,0v-8a1.5,1.5,0,0,0-3,0Z" transform="translate(-27 -153)"/><path class="cls-15" d="M390.33,484.18V494a1.5,1.5,0,0,0,3,0v-9.81a1.5,1.5,0,0,0-3,0Z" transform="translate(-27 -153)"/><path class="cls-15" d="M390.33,510.94v10.7a1.5,1.5,0,0,0,3,0v-10.7a1.5,1.5,0,0,0-3,0Z" transform="translate(-27 -153)"/><path class="cls-15" d="M390.33,532.34v8a1.5,1.5,0,0,0,3,0v-8a1.5,1.5,0,0,0-3,0Z" transform="translate(-27 -153)"/><path class="cls-15" d="M390.33,555.53v11.59a1.5,1.5,0,0,0,3,0V555.53a1.5,1.5,0,0,0-3,0Z" transform="translate(-27 -153)"/><path class="cls-15" d="M390.33,580.5v11.59a1.5,1.5,0,0,0,3,0V580.5a1.5,1.5,0,0,0-3,0Z" transform="translate(-27 -153)"/><path class="cls-15" d="M390.33,609v9.81a1.5,1.5,0,0,0,3,0V609a1.5,1.5,0,0,0-3,0Z" transform="translate(-27 -153)"/><path class="cls-15" d="M390.33,629.55v13.37a1.5,1.5,0,0,0,3,0V629.55a1.5,1.5,0,0,0-3,0Z" transform="translate(-27 -153)"/><path class="cls-15" d="M390.33,657.19v7.14a1.5,1.5,0,0,0,3,0v-7.14a1.5,1.5,0,0,0-3,0Z" transform="translate(-27 -153)"/><path class="cls-15" d="M392,682.16v10.7a1.5,1.5,0,0,0,3,0v-10.7a1.5,1.5,0,0,0-3,0Z" transform="translate(-27 -153)"/><path class="cls-15" d="M313.08,432.53v13.38a1.5,1.5,0,0,0,3,0V432.53a1.5,1.5,0,0,0-3,0Z" transform="translate(-27 -153)"/><path class="cls-15" d="M313.08,455.72v8a1.5,1.5,0,0,0,3,0v-8a1.51,1.51,0,0,0-1.5-1.5,1.53,1.53,0,0,0-1.5,1.5Z" transform="translate(-27 -153)"/><path class="cls-15" d="M311.38,480.69v9.81a1.5,1.5,0,0,0,3,0v-9.81a1.51,1.51,0,0,0-1.5-1.5,1.53,1.53,0,0,0-1.5,1.5Z" transform="translate(-27 -153)"/><path class="cls-15" d="M311.38,507.44v10.71a1.5,1.5,0,0,0,3,0V507.44a1.5,1.5,0,1,0-3,0Z" transform="translate(-27 -153)"/><path class="cls-15" d="M311.38,528.85v8a1.5,1.5,0,0,0,3,0v-8a1.5,1.5,0,0,0-3,0Z" transform="translate(-27 -153)"/><path class="cls-15" d="M311.38,552v11.6a1.5,1.5,0,0,0,3,0V552a1.5,1.5,0,0,0-3,0Z" transform="translate(-27 -153)"/><path class="cls-15" d="M311.38,577v11.6a1.5,1.5,0,0,0,3,0V577a1.5,1.5,0,0,0-3,0Z" transform="translate(-27 -153)"/><path class="cls-15" d="M311.38,605.54v9.81a1.5,1.5,0,0,0,3,0v-9.81a1.5,1.5,0,0,0-3,0Z" transform="translate(-27 -153)"/><path class="cls-15" d="M311.38,626.05v13.38a1.5,1.5,0,0,0,3,0V626.05a1.5,1.5,0,0,0-3,0Z" transform="translate(-27 -153)"/><path class="cls-15" d="M311.38,653.7v7.13a1.5,1.5,0,0,0,3,0V653.7a1.5,1.5,0,0,0-3,0Z" transform="translate(-27 -153)"/><path class="cls-15" d="M313.08,678.67v10.7a1.5,1.5,0,0,0,3,0v-10.7a1.5,1.5,0,0,0-3,0Z" transform="translate(-27 -153)"/><path class="cls-15" d="M328,429v13.38a1.5,1.5,0,0,0,3,0V429a1.5,1.5,0,0,0-3,0Z" transform="translate(-27 -153)"/><path class="cls-15" d="M328,452.23v8a1.5,1.5,0,0,0,3,0v-8a1.5,1.5,0,0,0-3,0Z" transform="translate(-27 -153)"/><path class="cls-15" d="M326.34,477.2V487a1.5,1.5,0,0,0,3,0V477.2a1.5,1.5,0,0,0-3,0Z" transform="translate(-27 -153)"/><path class="cls-15" d="M326.34,504v10.7a1.5,1.5,0,0,0,3,0V504a1.5,1.5,0,0,0-3,0Z" transform="translate(-27 -153)"/><path class="cls-15" d="M326.34,525.35v8a1.5,1.5,0,0,0,3,0v-8a1.5,1.5,0,0,0-3,0Z" transform="translate(-27 -153)"/><path class="cls-15" d="M326.34,548.54v11.59a1.5,1.5,0,0,0,3,0V548.54a1.5,1.5,0,0,0-3,0Z" transform="translate(-27 -153)"/><path class="cls-15" d="M326.34,573.51v11.6a1.5,1.5,0,0,0,3,0v-11.6a1.5,1.5,0,0,0-3,0Z" transform="translate(-27 -153)"/><path class="cls-15" d="M326.34,602.05v9.81a1.5,1.5,0,0,0,3,0v-9.81a1.51,1.51,0,0,0-1.5-1.5,1.53,1.53,0,0,0-1.5,1.5Z" transform="translate(-27 -153)"/><path class="cls-15" d="M326.34,622.56v13.38a1.5,1.5,0,0,0,3,0V622.56a1.5,1.5,0,0,0-3,0Z" transform="translate(-27 -153)"/><path class="cls-15" d="M326.34,650.21v7.13a1.51,1.51,0,0,0,1.5,1.5,1.53,1.53,0,0,0,1.5-1.5v-7.13a1.5,1.5,0,0,0-3,0Z" transform="translate(-27 -153)"/><path class="cls-15" d="M328,675.18v10.7a1.5,1.5,0,0,0,3,0v-10.7a1.5,1.5,0,0,0-3,0Z" transform="translate(-27 -153)"/><path class="cls-15" d="M1354.18,250.38C1343,246.69,1337.59,235,1341,225.86c2.74-7.23,10.81-12.13,19.71-11.44a19.54,19.54,0,0,1,8.22-13.08c8.25-5.49,17.33-1.94,18.07-1.63a20.35,20.35,0,0,1,0-11.44c4.19-13.34,24.75-22.42,41.06-16.35,11.63,4.33,19.76,15.86,21.35,29.42,1.34-.57,9-3.67,16.43,0,7.95,3.94,12.36,14.08,9.85,24.52,1.72-.4,8-1.65,11.5,1.63,4.5,4.19,4,15.18-4.93,24.52Z" transform="translate(-27 -153)"/><path class="cls-15" d="M897.8,384.94a12.88,12.88,0,0,1-7.75-15.84,11.26,11.26,0,0,1,11.63-7.39,12.93,12.93,0,0,1,4.85-8.45c4.88-3.55,10.24-1.26,10.67-1.06a14.52,14.52,0,0,1,0-7.39c2.48-8.62,14.62-14.49,24.25-10.57,6.86,2.8,11.67,10.25,12.61,19,.79-.37,5.32-2.38,9.7,0,4.69,2.54,7.29,9.09,5.82,15.84,1-.26,4.7-1.07,6.79,1.06,2.65,2.7,2.33,9.8-2.91,15.84Z" transform="translate(-27 -153)"/><polygon class="cls-16" points="1249.91 537.7 1238.09 562.33 1238.44 541.57 1238.42 533 1227.02 537.58 1230.48 545.85 1232.66 597.12 1240.23 596.45 1237.75 566.65 1252.78 538.88 1249.91 537.7"/><ellipse class="cls-17" cx="1249.02" cy="527.06" rx="22.11" ry="22.79"/><ellipse class="cls-17" cx="1248.14" cy="486.36" rx="14" ry="14.43"/><ellipse class="cls-17" cx="1250.43" cy="651.58" rx="23.15" ry="18.51" transform="translate(-84.35 -28.54) rotate(-5.57)"/><ellipse class="cls-18" cx="1262.2" cy="506.24" rx="7.25" ry="7.48"/><ellipse class="cls-18" cx="1231.94" cy="492.47" rx="9.33" ry="9.61"/><ellipse class="cls-18" cx="1220.94" cy="502.02" rx="5.87" ry="6.05"/><ellipse class="cls-18" cx="1247.3" cy="689.03" rx="14.81" ry="13.61" transform="translate(3.17 1277.04) rotate(-60.25)"/><ellipse class="cls-18" cx="1204.22" cy="517.79" rx="12.09" ry="12.46"/><ellipse class="cls-18" cx="1240.39" cy="502.45" rx="7.25" ry="7.48"/><polygon class="cls-16" points="1558.91 562.7 1547.09 587.33 1547.44 566.57 1547.42 558 1536.02 562.58 1539.48 570.85 1541.66 622.12 1549.23 621.45 1546.75 591.65 1561.78 563.88 1558.91 562.7"/><ellipse class="cls-17" cx="1558.02" cy="552.06" rx="22.11" ry="22.79"/><ellipse class="cls-17" cx="1557.14" cy="511.36" rx="14" ry="14.43"/><ellipse class="cls-17" cx="1559.43" cy="676.58" rx="23.15" ry="18.51" transform="translate(-85.31 1.57) rotate(-5.57)"/><ellipse class="cls-18" cx="1571.2" cy="531.24" rx="7.25" ry="7.48"/><ellipse class="cls-18" cx="1540.94" cy="517.47" rx="9.33" ry="9.61"/><ellipse class="cls-18" cx="1529.94" cy="527.02" rx="5.87" ry="6.05"/><ellipse class="cls-18" cx="1556.3" cy="714.03" rx="14.81" ry="13.61" transform="translate(137.14 1557.91) rotate(-60.25)"/><ellipse class="cls-18" cx="1513.22" cy="542.79" rx="12.09" ry="12.46"/><ellipse class="cls-18" cx="1549.39" cy="527.45" rx="7.25" ry="7.48"/><polygon class="cls-16" points="1346.31 571.97 1354.84 590.69 1354.59 574.91 1354.6 568.4 1362.83 571.88 1360.33 578.16 1358.76 617.12 1353.3 616.61 1355.08 593.97 1344.24 572.87 1346.31 571.97"/><ellipse class="cls-17" cx="1346.95" cy="563.88" rx="15.95" ry="17.32"/><ellipse class="cls-17" cx="1347.59" cy="532.96" rx="10.1" ry="10.96"/><ellipse class="cls-17" cx="1392.42" cy="695.25" rx="14.06" ry="16.71" transform="translate(500.01 1835.8) rotate(-82.75)"/><ellipse class="cls-18" cx="1337.44" cy="548.07" rx="5.23" ry="5.68"/><ellipse class="cls-18" cx="1359.28" cy="537.61" rx="6.73" ry="7.3"/><ellipse class="cls-18" cx="1367.21" cy="544.86" rx="4.24" ry="4.6"/><ellipse class="cls-18" cx="1394.68" cy="723.7" rx="9.9" ry="11.16" transform="translate(-185.74 334.53) rotate(-18.78)"/><ellipse class="cls-18" cx="1379.28" cy="556.84" rx="8.72" ry="9.47"/><ellipse class="cls-18" cx="1353.18" cy="545.18" rx="5.23" ry="5.68"/><polygon class="cls-16" points="1665.82 599.86 1674.35 618.58 1674.1 602.8 1674.11 596.29 1682.34 599.77 1679.84 606.05 1678.27 645.01 1672.81 644.5 1674.59 621.86 1663.75 600.76 1665.82 599.86"/><ellipse class="cls-17" cx="1666.46" cy="591.78" rx="15.95" ry="17.32"/><ellipse class="cls-17" cx="1667.1" cy="560.86" rx="10.1" ry="10.96"/><ellipse class="cls-17" cx="1711.93" cy="723.14" rx="14.06" ry="16.71" transform="translate(751.53 2177.13) rotate(-82.75)"/><ellipse class="cls-18" cx="1656.95" cy="575.96" rx="5.23" ry="5.68"/><ellipse class="cls-18" cx="1678.79" cy="565.5" rx="6.73" ry="7.3"/><ellipse class="cls-18" cx="1686.72" cy="572.75" rx="4.24" ry="4.6"/><ellipse class="cls-18" cx="1714.18" cy="751.59" rx="9.9" ry="11.16" transform="matrix(0.95, -0.32, 0.32, 0.95, -177.7, 438.88)"/><ellipse class="cls-18" cx="1698.78" cy="584.73" rx="8.72" ry="9.47"/><ellipse class="cls-18" cx="1672.69" cy="573.08" rx="5.23" ry="5.68"/><path class="cls-2" d="M1195.59,467h256.26c.85-.14,8.25-1.46,11.86-8.51,4.29-8.36-.92-16.62-1.18-17a17.11,17.11,0,0,0-7.12-6.08H1402l-11.86-8.51s.31-15.19,4.74-19.45c6.13-5.89,14.17-5,15.43-4.86h85.42s9.89-4.27,11.86-13.38a18.55,18.55,0,0,0-2.37-13.37,17.1,17.1,0,0,0-10.68-7.29h-34.41l-5.93-8.51s-.75-12.74-3.56-17c-1.8-2.75-6.11-5.66-17.79-4.87H1137.46c-1.19.68-7.42,4.37-8.31,10.94-1,7.68,6,13.66,7.12,14.59,11.74,9.66,24.84-1.7,40.34,7.3,1.77,1,12.16,7.05,11.86,15.8-.22,6.56-6.39,12.87-15.42,15.81h-55.76c-6.3,1.55-11,6.4-11.86,12.15-1.16,7.91,5.59,13.36,7.12,14.59,7.42,6,16.45,4,17.79,3.65h40.34c5.91,2.55,8.4,5.76,9.49,8.51,1.66,4.19,0,7.09,1.19,12.16a21.18,21.18,0,0,0,7.11,10.94Z" transform="translate(-27 -153)"/><circle class="cls-19" cx="718" cy="718" r="15"/><circle class="cls-19" cx="768.5" cy="723.5" r="20.5"/><circle class="cls-19" cx="732.5" cy="742.5" r="9.5"/><path class="cls-19" d="M747,861a82,82,0,0,0-15-29c-20.82-25.7-51-30.09-59-31v20l15,5a65.8,65.8,0,0,1,47,50Z" transform="translate(-27 -153)"/></g></svg>