<svg xmlns="http://www.w3.org/2000/svg" viewBox="0 0 1783 772.69"><defs><style>.cls-1{fill:#6bc7bc;}.cls-2{fill:#c2e4d3;}.cls-3{fill:#fdffe5;}.cls-4{fill:#a7dbce;}.cls-5{fill:#b1ef08;}.cls-6{fill:#f4fffb;}.cls-7{fill:#0ac840;}.cls-8{fill:#b2ec02;}.cls-9{fill:#b3cc66;}.cls-10{fill:#ffffe1;}.cls-11{fill:#543810;}.cls-12{fill:#08602d;}.cls-13{fill:#068e44;}.cls-14{fill:#096d37;}.cls-15{fill:#078442;}.cls-16{fill:#0a612e;}.cls-17{fill:#fff;}.cls-18{fill:#354f2a;}.cls-19{fill:#7a9d49;}.cls-20{fill:#29411f;}.cls-21{fill:#6c8b3b;}.cls-22{fill:#bccc47;}.cls-23{fill:#4c8248;}.cls-24{fill:#406b35;}.cls-25{fill:#7b9f48;}.cls-26{fill:#4f8144;}.cls-27{fill:#7cb77d;}.cls-28{fill:#bcc364;}.cls-29{fill:#e9ffef;}.cls-30,.cls-32,.cls-35{fill:none;stroke-miterlimit:10;}.cls-30{stroke:#e7f0af;}.cls-30,.cls-32{stroke-width:3px;}.cls-31{fill:#e7f0af;}.cls-32{stroke:#000;}.cls-33{fill:#f6fcfc;}.cls-34{fill:#17411b;}.cls-35{stroke:#fff;}.cls-36{fill:#87a543;}.cls-37{fill:#93b63e;}.cls-38{fill:#709c2d;}.cls-39{fill:#abd035;}.cls-40{fill:#f4fbff;}.cls-41{fill:#f3faff;}</style></defs><g id="Layer_3" data-name="Layer 3"><path class="cls-1" d="M1829,868c2.54-17.76,6.71-64.15-19-112-9.85-18.33-31.24-58.15-70-69-53.67-15-73.16,44.39-146,48-56.75,2.81-111-30-179-71-39.59-23.9-47.4-34.42-72-37-18.56-2-46.07.68-130,59-65.74,45.68-62,53.19-115,87-70.58,45-114.44,55.44-126,58-22.39,5-52.18,11.28-90,6-45.94-6.42-77.15-26.24-124-56-57.25-36.36-51.84-46.27-80-60-12.94-6.31-93.64-27.6-199,17-89.93,38.07-145.16,101.73-173,140Z" transform="translate(-69 -218.11)"/><polygon class="cls-2" points="490 254.9 419 388.89 479 555.89 571 555.89 490 254.9"/><path class="cls-3" d="M706,778,559,473l90,340Z" transform="translate(-69 -218.11)"/><polygon class="cls-3" points="275 263.89 346 393.89 326 424.89 275 263.89"/><path class="cls-4" d="M259,627l85-145,58.6,149.22Q390.8,708.11,379,785Z" transform="translate(-69 -218.11)"/><path class="cls-5" d="M594,860c-10.61-40.76-18.17-73.87-23-96-8.47-38.8-15-62.2-28-109-8.86-31.84-13.31-45.56-27-57-18.32-15.31-41.66-16.89-58-18-19.65-1.33-39.85-2.7-56,8-14.13,9.36-17.7,23-30,93-16.24,92.34-17.72,106-19,120-3,32.93-3.88,61-4,82Z" transform="translate(-69 -218.11)"/><path class="cls-6" d="M537,634c-.56,8-4.3,14.07-9,15s-9.57-3.64-11-5c-5.82-5.54-5.7-11.7-9-12-2.27-.21-4.24,2.54-6,5-5.39,7.54-3.91,13.9-7,15-3.58,1.27-9.18-6-10-7-7.09-9-5.26-17.29-10-19-3.3-1.19-7.15,1.79-10,4-10.69,8.28-9.12,19.2-16,21-4.7,1.23-10.33-2.59-13-6-3.86-4.92-1.45-8.87-6-15-1-1.35-4.83-6.5-9-6-3.32.4-3.66,4-8,6a15.43,15.43,0,0,1-11,0c-7.67-2.76-12.81-14.61-11-29a105.9,105.9,0,0,1,19-35c8.8-10.69,24.36-29.59,45-30,21-.42,36.27,18.49,51,37A173.57,173.57,0,0,1,537,634Z" transform="translate(-69 -218.11)"/><path class="cls-7" d="M400,874c-2.8-12-7-29.71-12.16-51.36-3.55-14.79-5.29-22.2-6.94-28.66-5.47-21.35-11.2-40.89-20-71.08-8.54-29.13-12.83-41.69-26-52.16-17.65-14-40.14-15.46-55.88-16.47-18.94-1.22-38.4-2.47-54,7.32-13.62,8.57-17.05,21.07-28.91,85.1-8.07,43.56-11.33,49.39-18.31,109.81-.79,6.87-1.39,12.57-1.78,16.5Z" transform="translate(-69 -218.11)"/><path class="cls-8" d="M355.08,703.68c-.54,7.28-4.14,12.88-8.68,13.73s-9.22-3.33-10.59-4.58c-5.61-5.07-5.5-10.7-8.68-11-2.19-.19-4.08,2.33-5.78,4.58-5.2,6.89-3.76,12.72-6.74,13.72-3.45,1.17-8.85-5.46-9.64-6.4-6.83-8.19-5.07-15.83-9.63-17.39-3.18-1.09-6.89,1.64-9.64,3.66-10.3,7.58-8.79,17.57-15.42,19.22-4.53,1.12-9.95-2.37-12.52-5.49-3.72-4.51-1.4-8.12-5.78-13.73-1-1.23-4.66-5.95-8.68-5.49-3.19.37-3.52,3.65-7.7,5.49a15.55,15.55,0,0,1-10.6,0c-7.39-2.52-12.35-13.37-10.6-26.53a95.49,95.49,0,0,1,18.3-32c8.49-9.79,23.48-27.08,43.36-27.45,20.25-.39,35,16.91,49.15,33.85A156.28,156.28,0,0,1,355.08,703.68Z" transform="translate(-69 -218.11)"/><path class="cls-9" d="M734,869c-5.38-20.67-10.1-37.38-13.58-49.34-2.42-8.34-3.85-13.06-4.89-16.38-3.86-12.19-7.9-23.36-14.14-40.6-6-16.65-9-23.82-18.35-29.8-12.45-8-28.31-8.83-39.42-9.41-27-1.41-34.24,1.77-38.06,4.18A38.92,38.92,0,0,0,598,734c-8.93,9.16-11.24,18.3-18,40-.31,1-3.21,10-9,28-7,21.64-7.59,23.11-10,31-2.61,8.56-6.25,21.18-10,37Z" transform="translate(-69 -218.11)"/><path class="cls-10" d="M697.31,751.7c-.38,4.15-2.92,7.36-6.11,7.84s-6.51-1.9-7.48-2.61c-4-2.9-3.87-6.12-6.12-6.28-1.54-.1-2.88,1.33-4.07,2.62-3.67,3.94-2.66,7.26-4.76,7.84-2.44.67-6.24-3.12-6.8-3.66-4.82-4.68-3.57-9-6.8-9.93-2.24-.62-4.85.93-6.79,2.09-7.27,4.32-6.2,10-10.88,11-3.19.64-7-1.36-8.83-3.14-2.62-2.57-1-4.64-4.08-7.84-.68-.71-3.28-3.4-6.12-3.14-2.25.21-2.48,2.09-5.43,3.14a13.4,13.4,0,0,1-7.48,0c-5.21-1.44-8.71-7.64-7.48-15.16A52.91,52.91,0,0,1,611,716.15c6-5.59,16.56-15.47,30.58-15.68,14.28-.22,24.65,9.66,34.66,19.34A85.82,85.82,0,0,1,697.31,751.7Z" transform="translate(-69 -218.11)"/><polygon class="cls-11" points="241 565.89 261 598.89 258 569.89 257 557.89 274 562.89 270 574.89 273 646.89 262 646.89 262 604.89 237 567.89 241 565.89"/><circle class="cls-12" cx="241" cy="550.89" r="32"/><circle class="cls-12" cx="234" cy="497.89" r="24"/><ellipse class="cls-12" cx="274.5" cy="507.89" rx="33.5" ry="26"/><circle class="cls-13" cx="219.5" cy="523.39" r="10.5"/><circle class="cls-13" cx="261.5" cy="500.39" r="13.5"/><circle class="cls-13" cx="278.5" cy="512.39" r="8.5"/><ellipse class="cls-13" cx="352.5" cy="778" rx="19.5" ry="21" transform="translate(-515.88 259.02) rotate(-45)"/><circle class="cls-13" cx="304.5" cy="532.39" r="17.5"/><ellipse class="cls-14" cx="129.5" cy="555.89" rx="15.5" ry="12"/><ellipse class="cls-15" cx="118.5" cy="566.39" rx="11.5" ry="9.5"/><ellipse class="cls-16" cx="100" cy="556.39" rx="17" ry="14.5"/><ellipse class="cls-14" cx="102" cy="580.39" rx="19" ry="15.5"/><circle class="cls-13" cx="250.5" cy="515.39" r="10.5"/><polygon class="cls-11" points="653.78 590.66 641.96 615.29 642.31 594.53 642.29 585.96 630.88 590.54 634.34 598.81 636.52 650.08 644.1 649.41 641.62 619.61 656.65 591.84 653.78 590.66"/><ellipse class="cls-12" cx="652.89" cy="580.02" rx="22.11" ry="22.79"/><ellipse class="cls-12" cx="654.58" cy="541.99" rx="16.58" ry="17.09"/><ellipse class="cls-12" cx="696.3" cy="769.65" rx="23.15" ry="18.51" transform="translate(-140.42 -146.88) rotate(-5.57)"/><ellipse class="cls-13" cx="666.07" cy="559.2" rx="7.25" ry="7.48"/><ellipse class="cls-13" cx="635.8" cy="545.43" rx="9.33" ry="9.61"/><ellipse class="cls-13" cx="624.81" cy="554.98" rx="5.87" ry="6.05"/><ellipse class="cls-13" cx="693.17" cy="807.09" rx="14.81" ry="13.61" transform="translate(-420.51 790.32) rotate(-60.25)"/><ellipse class="cls-13" cx="608.09" cy="570.75" rx="12.09" ry="12.46"/><ellipse class="cls-13" cx="644.26" cy="555.41" rx="7.25" ry="7.48"/></g><g id="Layer_2" data-name="Layer 2"><circle class="cls-17" cx="922.5" cy="73.39" r="51.5"/><rect class="cls-18" x="1232" y="162.89" width="100" height="462"/><rect class="cls-19" x="1361" y="240.89" width="146" height="408"/><rect class="cls-20" x="1282" y="162.89" width="50" height="486"/><rect class="cls-21" x="1434" y="240.89" width="73" height="412"/><rect class="cls-22" x="1307" y="346.89" width="58" height="296"/><path class="cls-23" d="M1263,698l-45,56v59h51Z" transform="translate(-69 -218.11)"/><path class="cls-24" d="M1321,755l-58-57,6,115h52Z" transform="translate(-69 -218.11)"/><path class="cls-23" d="M1584,607l-57,64q.49,90,1,180l56-25Z" transform="translate(-69 -218.11)"/><path class="cls-24" d="M1635,671l-51-64V826l54,5Z" transform="translate(-69 -218.11)"/><rect class="cls-25" x="1307" y="459.89" width="89" height="193"/><rect class="cls-25" x="1552" y="479.89" width="83" height="173"/><rect class="cls-26" x="1352" y="459.89" width="44" height="200"/><rect class="cls-26" x="1594" y="479.89" width="41" height="180"/><polygon class="cls-27" points="1282 72.89 1282 162.9 1291.49 162.9 1287 73.89 1282 72.89"/><polygon class="cls-27" points="1280 64.89 1235 107.89 1282 76.43 1336 98.89 1287 69.89 1280 11.89 1280 64.89"/><path class="cls-28" d="M1483,405l-24,27h61l23-26Z" transform="translate(-69 -218.11)"/><rect class="cls-29" x="1425.79" y="213.89" width="8.21" height="27"/><line class="cls-30" x1="1402" y1="200.39" x2="1462.94" y2="200.39"/><line class="cls-30" x1="1432.47" y1="186.89" x2="1412" y2="213.89"/><line class="cls-30" x1="1454.38" y1="186.89" x2="1433.5" y2="213.39"/><ellipse class="cls-31" cx="1283.5" cy="71.39" rx="4" ry="7"/><rect class="cls-17" x="1297" y="189.89" width="28" height="28"/><rect class="cls-17" x="1240" y="232.89" width="28" height="28"/><rect class="cls-17" x="1240" y="189.89" width="28" height="28"/><line class="cls-32" x1="1254" y1="189.89" x2="1254" y2="217.89"/><line class="cls-32" x1="1268" y1="204.39" x2="1240" y2="204.39"/><line class="cls-32" x1="1310.81" y1="189.89" x2="1310.81" y2="217.89"/><line class="cls-32" x1="1324.81" y1="204.39" x2="1296.81" y2="204.39"/><line class="cls-32" x1="1253.81" y1="232.89" x2="1253.81" y2="260.89"/><line class="cls-32" x1="1267.81" y1="247.39" x2="1239.81" y2="247.39"/><rect class="cls-17" x="1155.72" y="540.6" width="28" height="28"/><line class="cls-32" x1="1169.72" y1="540.6" x2="1169.72" y2="568.6"/><line class="cls-32" x1="1183.72" y1="555.1" x2="1155.72" y2="555.1"/><rect class="cls-17" x="1214.72" y="539.6" width="28" height="28"/><line class="cls-32" x1="1228.72" y1="539.6" x2="1228.72" y2="567.6"/><line class="cls-32" x1="1242.72" y1="554.1" x2="1214.72" y2="554.1"/><rect class="cls-17" x="1472.22" y="454.1" width="28" height="28"/><line class="cls-32" x1="1486.22" y1="454.1" x2="1486.22" y2="482.1"/><line class="cls-32" x1="1500.22" y1="468.6" x2="1472.22" y2="468.6"/><rect class="cls-17" x="1531.22" y="453.1" width="28" height="28"/><line class="cls-32" x1="1545.22" y1="453.1" x2="1545.22" y2="481.1"/><line class="cls-32" x1="1559.22" y1="467.6" x2="1531.22" y2="467.6"/><rect class="cls-17" x="1367.72" y="254.6" width="28" height="28"/><line class="cls-32" x1="1381.72" y1="254.6" x2="1381.72" y2="282.6"/><line class="cls-32" x1="1395.72" y1="269.1" x2="1367.72" y2="269.1"/><rect class="cls-17" x="1409.72" y="254.6" width="28" height="28"/><line class="cls-32" x1="1423.72" y1="254.6" x2="1423.72" y2="282.6"/><line class="cls-32" x1="1437.72" y1="269.1" x2="1409.72" y2="269.1"/><rect class="cls-17" x="1448.72" y="255.6" width="28" height="28"/><line class="cls-32" x1="1462.72" y1="255.6" x2="1462.72" y2="283.6"/><line class="cls-32" x1="1476.72" y1="270.1" x2="1448.72" y2="270.1"/><rect class="cls-17" x="1368.72" y="297.6" width="28" height="28"/><line class="cls-32" x1="1382.72" y1="297.6" x2="1382.72" y2="325.6"/><line class="cls-32" x1="1396.72" y1="312.1" x2="1368.72" y2="312.1"/><rect class="cls-17" x="1367.72" y="340.6" width="28" height="28"/><line class="cls-32" x1="1381.72" y1="340.6" x2="1381.72" y2="368.6"/><line class="cls-32" x1="1395.72" y1="355.1" x2="1367.72" y2="355.1"/><rect class="cls-17" x="1326" y="476.89" width="17" height="28"/><line class="cls-32" x1="1334.5" y1="476.89" x2="1334.5" y2="504.89"/><line class="cls-32" x1="1343" y1="491.39" x2="1326" y2="491.39"/><rect class="cls-17" x="1360" y="476.89" width="17" height="28"/><line class="cls-32" x1="1368.5" y1="476.89" x2="1368.5" y2="504.89"/><line class="cls-32" x1="1377" y1="491.39" x2="1360" y2="491.39"/><rect class="cls-17" x="1326" y="515.89" width="17" height="28"/><line class="cls-32" x1="1334.5" y1="515.89" x2="1334.5" y2="543.89"/><line class="cls-32" x1="1343" y1="530.39" x2="1326" y2="530.39"/><rect class="cls-17" x="1360" y="515.89" width="17" height="28"/><line class="cls-32" x1="1368.5" y1="515.89" x2="1368.5" y2="543.89"/><line class="cls-32" x1="1377" y1="530.39" x2="1360" y2="530.39"/><rect class="cls-17" x="1567" y="501.89" width="17" height="28"/><line class="cls-32" x1="1575.5" y1="501.89" x2="1575.5" y2="529.89"/><line class="cls-32" x1="1584" y1="516.39" x2="1567" y2="516.39"/><rect class="cls-17" x="1601" y="501.89" width="17" height="28"/><line class="cls-32" x1="1609.5" y1="501.89" x2="1609.5" y2="529.89"/><line class="cls-32" x1="1618" y1="516.39" x2="1601" y2="516.39"/><rect class="cls-17" x="1567" y="540.89" width="17" height="28"/><line class="cls-32" x1="1575.5" y1="540.89" x2="1575.5" y2="568.89"/><line class="cls-32" x1="1584" y1="555.39" x2="1567" y2="555.39"/><rect class="cls-17" x="1601" y="540.89" width="17" height="28"/><line class="cls-32" x1="1609.5" y1="540.89" x2="1609.5" y2="568.89"/><line class="cls-32" x1="1618" y1="555.39" x2="1601" y2="555.39"/><path class="cls-33" d="M1588.5,353.5c-6.8-2.25-10.1-9.43-8-15,1.67-4.42,6.58-7.42,12-7a12,12,0,0,1,5-8c5-3.36,10.55-1.19,11-1a12.58,12.58,0,0,1,0-7c2.56-8.16,15.07-13.71,25-10,7.08,2.65,12,9.7,13,18,.82-.35,5.49-2.24,10,0,4.84,2.41,7.52,8.61,6,15,1-.24,4.85-1,7,1,2.74,2.56,2.41,9.29-3,15Z" transform="translate(-69 -218.11)"/><path class="cls-33" d="M919.91,512.87c-6.8-2.25-10.11-9.43-8-15,1.66-4.42,6.58-7.42,12-7a12,12,0,0,1,5-8c5-3.36,10.54-1.19,11-1a12.48,12.48,0,0,1,0-7c2.55-8.16,15.07-13.72,25-10,7.07,2.64,12,9.7,13,18,.81-.35,5.49-2.25,10,0,4.84,2.41,7.52,8.61,6,15,1-.25,4.85-1,7,1,2.74,2.56,2.4,9.28-3,15Z" transform="translate(-69 -218.11)"/><path class="cls-33" d="M1112.06,424.62c-9.28-3.09-13.8-13-10.92-20.62,2.27-6.08,9-10.21,16.39-9.63a16.46,16.46,0,0,1,6.83-11c6.86-4.62,14.4-1.63,15-1.37a17.45,17.45,0,0,1,0-9.63c3.49-11.22,20.59-18.86,34.15-13.75,9.66,3.64,16.43,13.34,17.75,24.75,1.12-.48,7.5-3.09,13.66,0,6.61,3.31,10.28,11.84,8.2,20.63,1.42-.34,6.62-1.39,9.56,1.37,3.74,3.52,3.29,12.77-4.1,20.63Z" transform="translate(-69 -218.11)"/><path class="cls-33" d="M647.26,595.21a8.07,8.07,0,0,1-4.62-9.82,6.72,6.72,0,0,1,6.93-4.59,8.11,8.11,0,0,1,2.89-5.24,6.35,6.35,0,0,1,6.35-.65,9.23,9.23,0,0,1,0-4.59c1.47-5.34,8.7-9,14.43-6.55,4.09,1.73,7,6.36,7.51,11.79a6.4,6.4,0,0,1,5.77,0c2.8,1.58,4.35,5.64,3.47,9.83.6-.16,2.8-.66,4,.65,1.58,1.68,1.39,6.08-1.74,9.83Z" transform="translate(-69 -218.11)"/><path class="cls-33" d="M348.77,543.34c-5.12-1.5-7.6-6.26-6-10,1.26-2.94,4.95-4.93,9-4.65a7.79,7.79,0,0,1,3.76-5.31,10.36,10.36,0,0,1,8.28-.66,7.44,7.44,0,0,1,0-4.65c1.93-5.42,11.35-9.1,18.82-6.64a14.51,14.51,0,0,1,9.78,11.95,10.52,10.52,0,0,1,7.53,0,8.33,8.33,0,0,1,4.51,10c.79-.16,3.65-.67,5.27.66,2.06,1.7,1.81,6.17-2.26,10Z" transform="translate(-69 -218.11)"/><polygon class="cls-27" points="901.88 579.69 901.88 669.69 911.38 669.69 906.88 580.69 901.88 579.69"/><polygon class="cls-27" points="899.88 571.69 854.88 614.69 901.88 583.23 955.88 605.69 906.88 576.69 899.88 518.69 899.88 571.69"/><ellipse class="cls-31" cx="903.38" cy="578.19" rx="4" ry="7"/><polygon class="cls-27" points="999.39 542.79 999.39 658.89 1012.8 658.89 1006.45 544.08 999.39 542.79"/><polygon class="cls-27" points="996.57 532.47 933 587.94 999.39 547.35 1075.67 576.33 1006.45 538.92 996.57 464.1 996.57 532.47"/><ellipse class="cls-31" cx="1001.51" cy="540.86" rx="5.65" ry="9.03"/><polygon class="cls-27" points="818.6 542.19 818.6 658.89 831.45 658.89 825.37 543.49 818.6 542.19"/><polygon class="cls-27" points="815.89 531.82 755 587.58 818.6 546.77 891.67 575.91 825.37 538.3 815.89 463.1 815.89 531.82"/><ellipse class="cls-31" cx="820.63" cy="540.25" rx="5.41" ry="9.08"/><polygon class="cls-34" points="338 646.89 359 557.89 381 629.89 338 646.89"/><polygon class="cls-34" points="478 574.89 464 613.89 503 620.89 478 574.89"/><path class="cls-35" d="M428.5,777.64C430,851,428,851,428,851" transform="translate(-69 -218.11)"/><line class="cls-35" x1="346" y1="612.98" x2="359" y2="624.89"/><line class="cls-35" x1="349.27" y1="599.12" x2="359" y2="610.89"/><line class="cls-35" x1="374.58" y1="608.88" x2="360.06" y2="618.94"/><line class="cls-35" x1="353.1" y1="582.9" x2="359.5" y2="593.39"/><line class="cls-35" x1="370.71" y1="596.21" x2="361" y2="604.89"/></g><g id="Layer_4" data-name="Layer 4"><path class="cls-36" d="M1638,868.24,1852,874a212.86,212.86,0,0,1-43-23c-27.19-18.86-34.34-33.35-56-41-10.44-3.69-26.39-6.54-49-1v51Z" transform="translate(-69 -218.11)"/><path class="cls-37" d="M674,878H69c30.16-9.74,49.13-23.76,61-35,18.77-17.78,20.95-29.73,41-42,6-3.67,28.24-17.28,55-14,26.09,3.2,45.79,21.14,72,45,11.83,10.77,20.07,20.14,37,28,6.41,3,17.69,8.21,32,9,21.22,1.17,37.15-8.1,67-26s30.42-23.38,48-29c7.29-2.33,28-8.69,52-3,9.53,2.26,11.57,4.53,55,32,27.53,17.41,36.07,22.43,49,27A153.8,153.8,0,0,0,674,878Z" transform="translate(-69 -218.11)"/><path class="cls-38" d="M674,878c48,3.27,116.78,2.07,175,0l-11-11-11-7c-2.93,7.2-4.9,9.19-6.26,9-2.62-.36-4.71-9-4.73-9a0,0,0,0,0,0,0l-4,4-4.28,5L801,860l-4,9-7-9-4,5-10-5-6.57,9L762,860l-9,5-7-5-7,4-12-4-11,4s-8-10-10-4,0,8,0,8l-14-8-6.06,9.51L674,860l-6,8-7-8v8l-13-8v4l-8-4c-3.71,2.08-7.86,5-7.5,7.91C633.31,874.48,656.93,876.84,674,878Z" transform="translate(-69 -218.11)"/><path class="cls-37" d="M1106,866a219.42,219.42,0,0,0,55-21c22-12.09,39.82-27,53-38,22.43-18.77,21-21.1,31-26,31.12-15.33,65.12-2.73,67-2,13.73,5.31,28.15,19.88,57,49,24.16,24.39,30.18,33.23,46,38,18.59,5.6,35.53,1,43-1,12.09-3.27,17.93-7.48,52-31,36.78-25.4,42.66-29.25,54-32,19.71-4.78,36.56-1.52,44,0,19.19,3.92,32.14,12,48,22,28.16,17.84,29.13,25.93,48,36,11.93,6.37,30.84,13.43,59,13l11,1H1100Z" transform="translate(-69 -218.11)"/><path class="cls-39" d="M69,878q0-5.36,1762-11c9.89,2.17,21.22,5,21,7-.42,3.85-44.89-2-95,3-29.15,2.94-56.43,11.29-111,28-62.65,19.18-112.75,38.46-127,44-65.53,25.48-64,29.11-90,35-13.22,3-64.79,13.66-129,0-13.71-2.92-16.28-4.45-142-58-41.46-17.66-62.79-26.6-92-32-22.85-4.22-51.92-9.59-87-3-39.23,7.37-42.79,21.58-103,46-39.3,15.94-59.68,24.2-89,26-52.5,3.22-95.68-16.65-116-26-41.88-19.27-41.49-31-75-40-32.94-8.82-61.25-4.93-88-1-8.43,1.24-11.27,2.07-32.65,6.85C414.19,916.49,383.61,923.31,370,924c-36.37,1.84-47.15-11.24-98-26-32.18-9.34-79.36-19-141-18Q69,879,69,878Z" transform="translate(-69 -218.11)"/><path class="cls-40" d="M1766,448c6.73-4.15,9.34-11.66,7-17-2.48-5.65-9.67-6.95-10-7a14.57,14.57,0,0,0-8,1c-.58-1.07-3.65-6.44-10-8a15,15,0,0,0-7,0,22.92,22.92,0,0,0-3-13c-5.39-9.08-16.56-12.13-25-11-2.25.3-9.12,1.22-14,7a19.46,19.46,0,0,0-4,8,18.2,18.2,0,0,0-5-2c-6-1.41-14.74-.26-17,5a8.35,8.35,0,0,0,0,6,9.44,9.44,0,0,0-6,0c-5.93,2.22-7.21,11.23-7,16,.36,7.95,5.29,13.3,7,15Z" transform="translate(-69 -218.11)"/><path class="cls-40" d="M770.15,565c5-3.15,7-8.87,5.22-12.93-1.85-4.3-7.22-5.28-7.46-5.32a10.71,10.71,0,0,0-6,.76,12.22,12.22,0,0,0-7.46-6.09,11,11,0,0,0-5.23,0,17.71,17.71,0,0,0-2.24-9.88c-4-6.91-12.37-9.23-18.67-8.37a15.94,15.94,0,0,0-10.45,5.32,15.06,15.06,0,0,0-3,6.09,13.51,13.51,0,0,0-3.73-1.52c-4.45-1.08-11-.2-12.69,3.8a6.46,6.46,0,0,0,0,4.56,6.92,6.92,0,0,0-4.48,0c-4.43,1.69-5.39,8.54-5.23,12.17A17.72,17.72,0,0,0,694,565Z" transform="translate(-69 -218.11)"/><path class="cls-40" d="M258,510c-6-3.68-8.31-10.35-6.23-15.08,2.2-5,8.61-6.17,8.9-6.22a13.09,13.09,0,0,1,7.12.89,14.49,14.49,0,0,1,8.9-7.1,13.5,13.5,0,0,1,6.23,0A20.32,20.32,0,0,1,285.57,471c4.79-8.06,14.73-10.76,22.24-9.76,2,.26,8.12,1.08,12.46,6.21a17.18,17.18,0,0,1,3.56,7.1,16.72,16.72,0,0,1,4.45-1.78c5.3-1.25,13.12-.23,15.13,4.44a7.37,7.37,0,0,1,0,5.32,8.45,8.45,0,0,1,5.34,0c5.28,2,6.42,10,6.23,14.2A20.51,20.51,0,0,1,348.75,510Z" transform="translate(-69 -218.11)"/><path class="cls-41" d="M704.5,562a12.15,12.15,0,0,1,.42,1.88l-.06-.4a11.81,11.81,0,0,1,0,3l0-.4c0,.1,0,.19,0,.29a1.59,1.59,0,0,0,.15,1.15,1.52,1.52,0,0,0,.9.69,1.49,1.49,0,0,0,1.15-.15,1.45,1.45,0,0,0,.69-.9,13.18,13.18,0,0,0-.37-5.92,1.5,1.5,0,0,0-2.9.79Z" transform="translate(-69 -218.11)"/><path class="cls-41" d="M714.05,563.13v3.06a1.54,1.54,0,0,0,.44,1.06,1.5,1.5,0,0,0,2.56-1.06v-3.06a1.5,1.5,0,0,0-1.5-1.5,1.52,1.52,0,0,0-1.5,1.5Z" transform="translate(-69 -218.11)"/><path class="cls-41" d="M725.29,562.62v5.61a1.5,1.5,0,0,0,3,0v-5.61a1.5,1.5,0,1,0-3,0Z" transform="translate(-69 -218.11)"/><path class="cls-41" d="M734.48,561.09v6.12a1.5,1.5,0,0,0,3,0v-6.12a1.5,1.5,0,0,0-3,0Z" transform="translate(-69 -218.11)"/><path class="cls-41" d="M744.18,561.6v8.17a1.5,1.5,0,0,0,3,0V561.6a1.5,1.5,0,0,0-3,0Z" transform="translate(-69 -218.11)"/><path class="cls-41" d="M753.93,559.62v11.74a1.5,1.5,0,0,0,3,0V559.62a1.5,1.5,0,0,0-3,0Z" transform="translate(-69 -218.11)"/><path class="cls-41" d="M725.29,576.91v7.66a1.5,1.5,0,1,0,3,0v-7.66a1.5,1.5,0,1,0-3,0Z" transform="translate(-69 -218.11)"/><path class="cls-41" d="M725.29,590.19v4.6a1.5,1.5,0,0,0,3,0v-4.6a1.5,1.5,0,0,0-3,0Z" transform="translate(-69 -218.11)"/><path class="cls-41" d="M724.27,604.49v5.62a1.5,1.5,0,1,0,3,0v-5.62a1.5,1.5,0,0,0-3,0Z" transform="translate(-69 -218.11)"/><path class="cls-41" d="M724.27,619.81v6.13a1.5,1.5,0,0,0,3,0v-6.13a1.5,1.5,0,0,0-3,0Z" transform="translate(-69 -218.11)"/><path class="cls-41" d="M724.27,632.06v4.6a1.5,1.5,0,0,0,3,0v-4.6a1.5,1.5,0,0,0-3,0Z" transform="translate(-69 -218.11)"/><path class="cls-41" d="M724.27,645.34V652a1.5,1.5,0,0,0,3,0v-6.64a1.5,1.5,0,0,0-3,0Z" transform="translate(-69 -218.11)"/><path class="cls-41" d="M724.27,659.64v6.64a1.5,1.5,0,0,0,3,0v-6.64a1.5,1.5,0,1,0-3,0Z" transform="translate(-69 -218.11)"/><path class="cls-41" d="M724.27,676v5.62a1.5,1.5,0,0,0,3,0V676a1.5,1.5,0,0,0-3,0Z" transform="translate(-69 -218.11)"/><path class="cls-41" d="M724.27,687.72v7.66a1.5,1.5,0,1,0,3,0v-7.66a1.5,1.5,0,0,0-3,0Z" transform="translate(-69 -218.11)"/><path class="cls-41" d="M724.27,703.55v4.09a1.5,1.5,0,0,0,3,0v-4.09a1.5,1.5,0,0,0-3,0Z" transform="translate(-69 -218.11)"/><path class="cls-41" d="M725.29,717.85V724a1.5,1.5,0,0,0,3,0v-6.13a1.5,1.5,0,1,0-3,0Z" transform="translate(-69 -218.11)"/><path class="cls-41" d="M734.29,574.91v7.66a1.5,1.5,0,1,0,3,0v-7.66a1.5,1.5,0,1,0-3,0Z" transform="translate(-69 -218.11)"/><path class="cls-41" d="M734.29,588.19v4.6a1.5,1.5,0,0,0,3,0v-4.6a1.5,1.5,0,0,0-3,0Z" transform="translate(-69 -218.11)"/><path class="cls-41" d="M733.27,602.49v5.62a1.5,1.5,0,1,0,3,0v-5.62a1.5,1.5,0,0,0-3,0Z" transform="translate(-69 -218.11)"/><path class="cls-41" d="M733.27,617.81v6.13a1.5,1.5,0,0,0,3,0v-6.13a1.5,1.5,0,0,0-3,0Z" transform="translate(-69 -218.11)"/><path class="cls-41" d="M733.27,630.06v4.6a1.5,1.5,0,0,0,3,0v-4.6a1.5,1.5,0,0,0-3,0Z" transform="translate(-69 -218.11)"/><path class="cls-41" d="M733.27,643.34V650a1.5,1.5,0,0,0,3,0v-6.64a1.5,1.5,0,0,0-3,0Z" transform="translate(-69 -218.11)"/><path class="cls-41" d="M733.27,657.64v6.64a1.5,1.5,0,0,0,3,0v-6.64a1.5,1.5,0,1,0-3,0Z" transform="translate(-69 -218.11)"/><path class="cls-41" d="M733.27,674v5.62a1.5,1.5,0,0,0,3,0V674a1.5,1.5,0,0,0-3,0Z" transform="translate(-69 -218.11)"/><path class="cls-41" d="M733.27,685.72v7.66a1.5,1.5,0,1,0,3,0v-7.66a1.5,1.5,0,0,0-3,0Z" transform="translate(-69 -218.11)"/><path class="cls-41" d="M733.27,701.55v4.09a1.5,1.5,0,0,0,3,0v-4.09a1.5,1.5,0,0,0-3,0Z" transform="translate(-69 -218.11)"/><path class="cls-41" d="M734.29,715.85V722a1.5,1.5,0,0,0,3,0v-6.13a1.5,1.5,0,1,0-3,0Z" transform="translate(-69 -218.11)"/><path class="cls-41" d="M744.29,576.91v7.66a1.5,1.5,0,1,0,3,0v-7.66a1.5,1.5,0,1,0-3,0Z" transform="translate(-69 -218.11)"/><path class="cls-41" d="M744.29,590.19v4.6a1.5,1.5,0,0,0,3,0v-4.6a1.5,1.5,0,0,0-3,0Z" transform="translate(-69 -218.11)"/><path class="cls-41" d="M743.27,604.49v5.62a1.5,1.5,0,1,0,3,0v-5.62a1.5,1.5,0,0,0-3,0Z" transform="translate(-69 -218.11)"/><path class="cls-41" d="M743.27,619.81v6.13a1.5,1.5,0,0,0,3,0v-6.13a1.5,1.5,0,0,0-3,0Z" transform="translate(-69 -218.11)"/><path class="cls-41" d="M743.27,632.06v4.6a1.5,1.5,0,0,0,3,0v-4.6a1.5,1.5,0,0,0-3,0Z" transform="translate(-69 -218.11)"/><path class="cls-41" d="M743.27,645.34V652a1.5,1.5,0,0,0,3,0v-6.64a1.5,1.5,0,0,0-3,0Z" transform="translate(-69 -218.11)"/><path class="cls-41" d="M743.27,659.64v6.64a1.5,1.5,0,0,0,3,0v-6.64a1.5,1.5,0,1,0-3,0Z" transform="translate(-69 -218.11)"/><path class="cls-41" d="M743.27,676v5.62a1.5,1.5,0,0,0,3,0V676a1.5,1.5,0,0,0-3,0Z" transform="translate(-69 -218.11)"/><path class="cls-41" d="M743.27,687.72v7.66a1.5,1.5,0,1,0,3,0v-7.66a1.5,1.5,0,0,0-3,0Z" transform="translate(-69 -218.11)"/><path class="cls-41" d="M743.27,703.55v4.09a1.5,1.5,0,0,0,3,0v-4.09a1.5,1.5,0,0,0-3,0Z" transform="translate(-69 -218.11)"/><path class="cls-41" d="M744.29,717.85V724a1.5,1.5,0,0,0,3,0v-6.13a1.5,1.5,0,1,0-3,0Z" transform="translate(-69 -218.11)"/><path class="cls-41" d="M753.29,576.91v7.66a1.5,1.5,0,1,0,3,0v-7.66a1.5,1.5,0,1,0-3,0Z" transform="translate(-69 -218.11)"/><path class="cls-41" d="M753.29,590.19v4.6a1.5,1.5,0,0,0,3,0v-4.6a1.5,1.5,0,0,0-3,0Z" transform="translate(-69 -218.11)"/><path class="cls-41" d="M752.27,604.49v5.62a1.5,1.5,0,1,0,3,0v-5.62a1.5,1.5,0,0,0-3,0Z" transform="translate(-69 -218.11)"/><path class="cls-41" d="M752.27,619.81v6.13a1.5,1.5,0,0,0,3,0v-6.13a1.5,1.5,0,0,0-3,0Z" transform="translate(-69 -218.11)"/><path class="cls-41" d="M752.27,632.06v4.6a1.5,1.5,0,0,0,3,0v-4.6a1.5,1.5,0,0,0-3,0Z" transform="translate(-69 -218.11)"/><path class="cls-41" d="M752.27,645.34V652a1.5,1.5,0,0,0,3,0v-6.64a1.5,1.5,0,0,0-3,0Z" transform="translate(-69 -218.11)"/><path class="cls-41" d="M752.27,659.64v6.64a1.5,1.5,0,0,0,3,0v-6.64a1.5,1.5,0,1,0-3,0Z" transform="translate(-69 -218.11)"/><path class="cls-41" d="M752.27,676v5.62a1.5,1.5,0,0,0,3,0V676a1.5,1.5,0,0,0-3,0Z" transform="translate(-69 -218.11)"/><path class="cls-41" d="M752.27,687.72v7.66a1.5,1.5,0,1,0,3,0v-7.66a1.5,1.5,0,0,0-3,0Z" transform="translate(-69 -218.11)"/><path class="cls-41" d="M752.27,703.55v4.09a1.5,1.5,0,0,0,3,0v-4.09a1.5,1.5,0,0,0-3,0Z" transform="translate(-69 -218.11)"/><path class="cls-41" d="M753.29,717.85V724a1.5,1.5,0,0,0,3,0v-6.13a1.5,1.5,0,1,0-3,0Z" transform="translate(-69 -218.11)"/><path class="cls-41" d="M705.79,574.91v7.66a1.5,1.5,0,1,0,3,0v-7.66a1.5,1.5,0,1,0-3,0Z" transform="translate(-69 -218.11)"/><path class="cls-41" d="M705.79,588.19v4.6a1.5,1.5,0,0,0,3,0v-4.6a1.5,1.5,0,0,0-3,0Z" transform="translate(-69 -218.11)"/><path class="cls-41" d="M704.77,602.49v5.62a1.5,1.5,0,1,0,3,0v-5.62a1.5,1.5,0,0,0-3,0Z" transform="translate(-69 -218.11)"/><path class="cls-41" d="M704.77,617.81v6.13a1.5,1.5,0,0,0,3,0v-6.13a1.5,1.5,0,0,0-3,0Z" transform="translate(-69 -218.11)"/><path class="cls-41" d="M704.77,630.06v4.6a1.5,1.5,0,0,0,3,0v-4.6a1.5,1.5,0,0,0-3,0Z" transform="translate(-69 -218.11)"/><path class="cls-41" d="M704.77,643.34V650a1.5,1.5,0,0,0,3,0v-6.64a1.5,1.5,0,0,0-3,0Z" transform="translate(-69 -218.11)"/><path class="cls-41" d="M704.77,657.64v6.64a1.5,1.5,0,0,0,3,0v-6.64a1.5,1.5,0,1,0-3,0Z" transform="translate(-69 -218.11)"/><path class="cls-41" d="M704.77,674v5.62a1.5,1.5,0,0,0,3,0V674a1.5,1.5,0,0,0-3,0Z" transform="translate(-69 -218.11)"/><path class="cls-41" d="M704.77,685.72v7.66a1.5,1.5,0,1,0,3,0v-7.66a1.5,1.5,0,0,0-3,0Z" transform="translate(-69 -218.11)"/><path class="cls-41" d="M704.77,701.55v4.09a1.5,1.5,0,0,0,3,0v-4.09a1.5,1.5,0,0,0-3,0Z" transform="translate(-69 -218.11)"/><path class="cls-41" d="M705.79,715.85V722a1.5,1.5,0,0,0,3,0v-6.13a1.5,1.5,0,1,0-3,0Z" transform="translate(-69 -218.11)"/><path class="cls-41" d="M714.79,572.91v7.66a1.5,1.5,0,1,0,3,0v-7.66a1.5,1.5,0,1,0-3,0Z" transform="translate(-69 -218.11)"/><path class="cls-41" d="M714.79,586.19v4.6a1.5,1.5,0,0,0,3,0v-4.6a1.5,1.5,0,0,0-3,0Z" transform="translate(-69 -218.11)"/><path class="cls-41" d="M713.77,600.49v5.62a1.5,1.5,0,1,0,3,0v-5.62a1.5,1.5,0,0,0-3,0Z" transform="translate(-69 -218.11)"/><path class="cls-41" d="M713.77,615.81v6.13a1.5,1.5,0,0,0,3,0v-6.13a1.5,1.5,0,0,0-3,0Z" transform="translate(-69 -218.11)"/><path class="cls-41" d="M713.77,628.06v4.6a1.5,1.5,0,0,0,3,0v-4.6a1.5,1.5,0,0,0-3,0Z" transform="translate(-69 -218.11)"/><path class="cls-41" d="M713.77,641.34V648a1.5,1.5,0,0,0,3,0v-6.64a1.5,1.5,0,0,0-3,0Z" transform="translate(-69 -218.11)"/><path class="cls-41" d="M713.77,655.64v6.64a1.5,1.5,0,0,0,3,0v-6.64a1.5,1.5,0,1,0-3,0Z" transform="translate(-69 -218.11)"/><path class="cls-41" d="M713.77,672v5.62a1.5,1.5,0,0,0,3,0V672a1.5,1.5,0,0,0-3,0Z" transform="translate(-69 -218.11)"/><path class="cls-41" d="M713.77,683.72v7.66a1.5,1.5,0,1,0,3,0v-7.66a1.5,1.5,0,0,0-3,0Z" transform="translate(-69 -218.11)"/><path class="cls-41" d="M713.77,699.55v4.09a1.5,1.5,0,0,0,3,0v-4.09a1.5,1.5,0,0,0-3,0Z" transform="translate(-69 -218.11)"/><path class="cls-41" d="M714.79,713.85V720a1.5,1.5,0,0,0,3,0v-6.13a1.5,1.5,0,1,0-3,0Z" transform="translate(-69 -218.11)"/><path class="cls-41" d="M309.54,507.91v7.66a1.5,1.5,0,0,0,3,0v-7.66a1.5,1.5,0,0,0-3,0Z" transform="translate(-69 -218.11)"/><path class="cls-41" d="M309.54,521.19v4.6a1.5,1.5,0,0,0,3,0v-4.6a1.5,1.5,0,0,0-3,0Z" transform="translate(-69 -218.11)"/><path class="cls-41" d="M308.52,535.49v5.62a1.5,1.5,0,0,0,3,0v-5.62a1.5,1.5,0,0,0-3,0Z" transform="translate(-69 -218.11)"/><path class="cls-41" d="M308.52,550.81v6.13a1.5,1.5,0,0,0,3,0v-6.13a1.5,1.5,0,0,0-3,0Z" transform="translate(-69 -218.11)"/><path class="cls-41" d="M308.52,563.06v4.6a1.5,1.5,0,0,0,3,0v-4.6a1.5,1.5,0,0,0-3,0Z" transform="translate(-69 -218.11)"/><path class="cls-41" d="M308.52,576.34V583a1.5,1.5,0,0,0,3,0v-6.64a1.5,1.5,0,0,0-3,0Z" transform="translate(-69 -218.11)"/><path class="cls-41" d="M308.52,590.64v6.64a1.5,1.5,0,0,0,3,0v-6.64a1.5,1.5,0,0,0-3,0Z" transform="translate(-69 -218.11)"/><path class="cls-41" d="M308.52,607v5.62a1.5,1.5,0,0,0,3,0V607a1.5,1.5,0,0,0-3,0Z" transform="translate(-69 -218.11)"/><path class="cls-41" d="M308.52,618.72v7.66a1.5,1.5,0,0,0,3,0v-7.66a1.5,1.5,0,0,0-3,0Z" transform="translate(-69 -218.11)"/><path class="cls-41" d="M308.52,634.55v4.09a1.5,1.5,0,0,0,3,0v-4.09a1.5,1.5,0,0,0-3,0Z" transform="translate(-69 -218.11)"/><path class="cls-41" d="M309.54,648.85V655a1.5,1.5,0,0,0,3,0v-6.13a1.5,1.5,0,0,0-3,0Z" transform="translate(-69 -218.11)"/><path class="cls-41" d="M318.54,505.91v7.66a1.5,1.5,0,0,0,3,0v-7.66a1.5,1.5,0,0,0-3,0Z" transform="translate(-69 -218.11)"/><path class="cls-41" d="M318.54,519.19v4.6a1.5,1.5,0,0,0,3,0v-4.6a1.5,1.5,0,0,0-3,0Z" transform="translate(-69 -218.11)"/><path class="cls-41" d="M317.52,533.49v5.62a1.5,1.5,0,0,0,3,0v-5.62a1.5,1.5,0,0,0-3,0Z" transform="translate(-69 -218.11)"/><path class="cls-41" d="M317.52,548.81v6.13a1.5,1.5,0,0,0,3,0v-6.13a1.5,1.5,0,0,0-3,0Z" transform="translate(-69 -218.11)"/><path class="cls-41" d="M317.52,561.06v4.6a1.5,1.5,0,0,0,3,0v-4.6a1.5,1.5,0,0,0-3,0Z" transform="translate(-69 -218.11)"/><path class="cls-41" d="M317.52,574.34V581a1.5,1.5,0,0,0,3,0v-6.64a1.5,1.5,0,0,0-3,0Z" transform="translate(-69 -218.11)"/><path class="cls-41" d="M317.52,588.64v6.64a1.5,1.5,0,0,0,3,0v-6.64a1.5,1.5,0,0,0-3,0Z" transform="translate(-69 -218.11)"/><path class="cls-41" d="M317.52,605v5.62a1.5,1.5,0,0,0,3,0V605a1.5,1.5,0,0,0-3,0Z" transform="translate(-69 -218.11)"/><path class="cls-41" d="M317.52,616.72v7.66a1.5,1.5,0,0,0,3,0v-7.66a1.5,1.5,0,0,0-3,0Z" transform="translate(-69 -218.11)"/><path class="cls-41" d="M317.52,632.55v4.09a1.5,1.5,0,0,0,3,0v-4.09a1.5,1.5,0,0,0-3,0Z" transform="translate(-69 -218.11)"/><path class="cls-41" d="M318.54,646.85V653a1.5,1.5,0,0,0,3,0v-6.13a1.5,1.5,0,0,0-3,0Z" transform="translate(-69 -218.11)"/><path class="cls-41" d="M328.54,507.91v7.66a1.5,1.5,0,0,0,3,0v-7.66a1.5,1.5,0,0,0-3,0Z" transform="translate(-69 -218.11)"/><path class="cls-41" d="M328.54,521.19v4.6a1.5,1.5,0,0,0,3,0v-4.6a1.5,1.5,0,0,0-3,0Z" transform="translate(-69 -218.11)"/><path class="cls-41" d="M327.52,535.49v5.62a1.5,1.5,0,0,0,3,0v-5.62a1.5,1.5,0,0,0-3,0Z" transform="translate(-69 -218.11)"/><path class="cls-41" d="M327.52,550.81v6.13a1.5,1.5,0,0,0,3,0v-6.13a1.5,1.5,0,0,0-3,0Z" transform="translate(-69 -218.11)"/><path class="cls-41" d="M327.52,563.06v4.6a1.5,1.5,0,0,0,3,0v-4.6a1.5,1.5,0,0,0-3,0Z" transform="translate(-69 -218.11)"/><path class="cls-41" d="M327.52,576.34V583a1.5,1.5,0,0,0,3,0v-6.64a1.5,1.5,0,0,0-3,0Z" transform="translate(-69 -218.11)"/><path class="cls-41" d="M327.52,590.64v6.64a1.5,1.5,0,0,0,3,0v-6.64a1.5,1.5,0,0,0-3,0Z" transform="translate(-69 -218.11)"/><path class="cls-41" d="M327.52,607v5.62a1.5,1.5,0,0,0,3,0V607a1.5,1.5,0,0,0-3,0Z" transform="translate(-69 -218.11)"/><path class="cls-41" d="M327.52,618.72v7.66a1.5,1.5,0,0,0,3,0v-7.66a1.5,1.5,0,0,0-3,0Z" transform="translate(-69 -218.11)"/><path class="cls-41" d="M327.52,634.55v4.09a1.5,1.5,0,0,0,3,0v-4.09a1.5,1.5,0,0,0-3,0Z" transform="translate(-69 -218.11)"/><path class="cls-41" d="M328.54,648.85V655a1.5,1.5,0,0,0,3,0v-6.13a1.5,1.5,0,0,0-3,0Z" transform="translate(-69 -218.11)"/><path class="cls-41" d="M337.54,507.91v7.66a1.5,1.5,0,0,0,3,0v-7.66a1.5,1.5,0,0,0-3,0Z" transform="translate(-69 -218.11)"/><path class="cls-41" d="M337.54,521.19v4.6a1.5,1.5,0,0,0,3,0v-4.6a1.5,1.5,0,0,0-3,0Z" transform="translate(-69 -218.11)"/><path class="cls-41" d="M336.52,535.49v5.62a1.5,1.5,0,0,0,3,0v-5.62a1.5,1.5,0,0,0-3,0Z" transform="translate(-69 -218.11)"/><path class="cls-41" d="M336.52,550.81v6.13a1.5,1.5,0,0,0,3,0v-6.13a1.5,1.5,0,0,0-3,0Z" transform="translate(-69 -218.11)"/><path class="cls-41" d="M336.52,563.06v4.6a1.5,1.5,0,0,0,3,0v-4.6a1.5,1.5,0,0,0-3,0Z" transform="translate(-69 -218.11)"/><path class="cls-41" d="M336.52,576.34V583a1.5,1.5,0,0,0,3,0v-6.64a1.5,1.5,0,0,0-3,0Z" transform="translate(-69 -218.11)"/><path class="cls-41" d="M336.52,590.64v6.64a1.5,1.5,0,0,0,3,0v-6.64a1.5,1.5,0,0,0-3,0Z" transform="translate(-69 -218.11)"/><path class="cls-41" d="M336.52,607v5.62a1.5,1.5,0,0,0,3,0V607a1.5,1.5,0,0,0-3,0Z" transform="translate(-69 -218.11)"/><path class="cls-41" d="M336.52,618.72v7.66a1.5,1.5,0,0,0,3,0v-7.66a1.5,1.5,0,0,0-3,0Z" transform="translate(-69 -218.11)"/><path class="cls-41" d="M336.52,634.55v4.09a1.5,1.5,0,0,0,3,0v-4.09a1.5,1.5,0,0,0-3,0Z" transform="translate(-69 -218.11)"/><path class="cls-41" d="M337.54,648.85V655a1.5,1.5,0,0,0,3,0v-6.13a1.5,1.5,0,0,0-3,0Z" transform="translate(-69 -218.11)"/><path class="cls-41" d="M299,503.91v7.66a1.5,1.5,0,0,0,3,0v-7.66a1.5,1.5,0,0,0-3,0Z" transform="translate(-69 -218.11)"/><path class="cls-41" d="M299,517.19v4.6a1.5,1.5,0,0,0,3,0v-4.6a1.5,1.5,0,0,0-3,0Z" transform="translate(-69 -218.11)"/><path class="cls-41" d="M298,531.49v5.62a1.5,1.5,0,0,0,3,0v-5.62a1.5,1.5,0,0,0-3,0Z" transform="translate(-69 -218.11)"/><path class="cls-41" d="M298,546.81v6.13a1.5,1.5,0,0,0,3,0v-6.13a1.5,1.5,0,0,0-3,0Z" transform="translate(-69 -218.11)"/><path class="cls-41" d="M298,559.06v4.6a1.5,1.5,0,0,0,3,0v-4.6a1.5,1.5,0,0,0-3,0Z" transform="translate(-69 -218.11)"/><path class="cls-41" d="M298,572.34V579a1.5,1.5,0,0,0,3,0v-6.64a1.5,1.5,0,0,0-3,0Z" transform="translate(-69 -218.11)"/><path class="cls-41" d="M298,586.64v6.64a1.5,1.5,0,0,0,3,0v-6.64a1.5,1.5,0,0,0-3,0Z" transform="translate(-69 -218.11)"/><path class="cls-41" d="M298,603v5.62a1.5,1.5,0,0,0,3,0V603a1.5,1.5,0,0,0-3,0Z" transform="translate(-69 -218.11)"/><path class="cls-41" d="M298,614.72v7.66a1.5,1.5,0,0,0,3,0v-7.66a1.5,1.5,0,0,0-3,0Z" transform="translate(-69 -218.11)"/><path class="cls-41" d="M298,630.55v4.09a1.5,1.5,0,0,0,3,0v-4.09a1.5,1.5,0,0,0-3,0Z" transform="translate(-69 -218.11)"/><path class="cls-41" d="M299,644.85V651a1.5,1.5,0,0,0,3,0v-6.13a1.5,1.5,0,0,0-3,0Z" transform="translate(-69 -218.11)"/><path class="cls-41" d="M289.34,509.89v7.66a1.5,1.5,0,0,0,3,0v-7.66a1.5,1.5,0,0,0-3,0Z" transform="translate(-69 -218.11)"/><path class="cls-41" d="M289.34,523.17v4.6a1.5,1.5,0,0,0,3,0v-4.6a1.5,1.5,0,0,0-3,0Z" transform="translate(-69 -218.11)"/><path class="cls-41" d="M288.31,537.47v5.62a1.5,1.5,0,0,0,3,0v-5.62a1.5,1.5,0,0,0-3,0Z" transform="translate(-69 -218.11)"/><path class="cls-41" d="M288.31,552.79v6.12a1.5,1.5,0,0,0,3,0v-6.12a1.5,1.5,0,0,0-3,0Z" transform="translate(-69 -218.11)"/><path class="cls-41" d="M288.31,565v4.6a1.5,1.5,0,0,0,3,0V565a1.5,1.5,0,0,0-3,0Z" transform="translate(-69 -218.11)"/><path class="cls-41" d="M288.31,578.32V585a1.5,1.5,0,0,0,3,0v-6.64a1.51,1.51,0,0,0-1.5-1.5,1.53,1.53,0,0,0-1.5,1.5Z" transform="translate(-69 -218.11)"/><path class="cls-41" d="M288.31,592.62v6.64a1.5,1.5,0,0,0,3,0v-6.64a1.5,1.5,0,0,0-3,0Z" transform="translate(-69 -218.11)"/><path class="cls-41" d="M288.31,609v5.61a1.5,1.5,0,0,0,3,0V609a1.5,1.5,0,0,0-3,0Z" transform="translate(-69 -218.11)"/><path class="cls-41" d="M288.31,620.7v7.66a1.5,1.5,0,0,0,3,0V620.7a1.5,1.5,0,0,0-3,0Z" transform="translate(-69 -218.11)"/><path class="cls-41" d="M288.31,636.53v4.09a1.5,1.5,0,0,0,3,0v-4.09a1.5,1.5,0,0,0-3,0Z" transform="translate(-69 -218.11)"/><path class="cls-41" d="M289.34,650.83V657a1.5,1.5,0,0,0,3,0v-6.13a1.5,1.5,0,0,0-3,0Z" transform="translate(-69 -218.11)"/><path class="cls-41" d="M269.84,507.89v7.66a1.5,1.5,0,0,0,3,0v-7.66a1.5,1.5,0,0,0-3,0Z" transform="translate(-69 -218.11)"/><path class="cls-41" d="M269.84,521.17v4.6a1.5,1.5,0,0,0,3,0v-4.6a1.5,1.5,0,0,0-3,0Z" transform="translate(-69 -218.11)"/><path class="cls-41" d="M268.81,535.47v5.62a1.5,1.5,0,0,0,3,0v-5.62a1.5,1.5,0,0,0-3,0Z" transform="translate(-69 -218.11)"/><path class="cls-41" d="M268.81,550.79v6.12a1.5,1.5,0,0,0,3,0v-6.12a1.5,1.5,0,0,0-3,0Z" transform="translate(-69 -218.11)"/><path class="cls-41" d="M268.81,563v4.6a1.5,1.5,0,0,0,3,0V563a1.5,1.5,0,0,0-3,0Z" transform="translate(-69 -218.11)"/><path class="cls-41" d="M268.81,576.32V583a1.5,1.5,0,0,0,3,0v-6.64a1.51,1.51,0,0,0-1.5-1.5,1.53,1.53,0,0,0-1.5,1.5Z" transform="translate(-69 -218.11)"/><path class="cls-41" d="M268.81,590.62v6.64a1.5,1.5,0,0,0,3,0v-6.64a1.5,1.5,0,0,0-3,0Z" transform="translate(-69 -218.11)"/><path class="cls-41" d="M268.81,607v5.61a1.5,1.5,0,0,0,3,0V607a1.5,1.5,0,0,0-3,0Z" transform="translate(-69 -218.11)"/><path class="cls-41" d="M268.81,618.7v7.66a1.5,1.5,0,0,0,3,0V618.7a1.5,1.5,0,0,0-3,0Z" transform="translate(-69 -218.11)"/><path class="cls-41" d="M268.81,634.53v4.09a1.5,1.5,0,0,0,3,0v-4.09a1.5,1.5,0,0,0-3,0Z" transform="translate(-69 -218.11)"/><path class="cls-41" d="M269.84,648.83V655a1.5,1.5,0,0,0,3,0v-6.13a1.5,1.5,0,0,0-3,0Z" transform="translate(-69 -218.11)"/><path class="cls-41" d="M278.84,505.89v7.66a1.5,1.5,0,0,0,3,0v-7.66a1.5,1.5,0,0,0-3,0Z" transform="translate(-69 -218.11)"/><path class="cls-41" d="M278.84,519.17v4.6a1.5,1.5,0,0,0,3,0v-4.6a1.5,1.5,0,0,0-3,0Z" transform="translate(-69 -218.11)"/><path class="cls-41" d="M277.81,533.47v5.62a1.5,1.5,0,0,0,3,0v-5.62a1.5,1.5,0,0,0-3,0Z" transform="translate(-69 -218.11)"/><path class="cls-41" d="M277.81,548.79v6.12a1.5,1.5,0,0,0,3,0v-6.12a1.5,1.5,0,0,0-3,0Z" transform="translate(-69 -218.11)"/><path class="cls-41" d="M277.81,561v4.6a1.5,1.5,0,0,0,3,0V561a1.5,1.5,0,0,0-3,0Z" transform="translate(-69 -218.11)"/><path class="cls-41" d="M277.81,574.32V581a1.5,1.5,0,0,0,3,0v-6.64a1.51,1.51,0,0,0-1.5-1.5,1.53,1.53,0,0,0-1.5,1.5Z" transform="translate(-69 -218.11)"/><path class="cls-41" d="M277.81,588.62v6.64a1.5,1.5,0,0,0,3,0v-6.64a1.5,1.5,0,0,0-3,0Z" transform="translate(-69 -218.11)"/><path class="cls-41" d="M277.81,605v5.61a1.5,1.5,0,0,0,3,0V605a1.5,1.5,0,0,0-3,0Z" transform="translate(-69 -218.11)"/><path class="cls-41" d="M277.81,616.7v7.66a1.5,1.5,0,0,0,3,0V616.7a1.5,1.5,0,0,0-3,0Z" transform="translate(-69 -218.11)"/><path class="cls-41" d="M277.81,632.53v4.09a1.5,1.5,0,0,0,3,0v-4.09a1.5,1.5,0,0,0-3,0Z" transform="translate(-69 -218.11)"/><path class="cls-41" d="M278.84,646.83V653a1.5,1.5,0,0,0,3,0v-6.13a1.5,1.5,0,0,0-3,0Z" transform="translate(-69 -218.11)"/><path class="cls-41" d="M1698.87,442v7.66a1.5,1.5,0,0,0,3,0V442a1.5,1.5,0,0,0-3,0Z" transform="translate(-69 -218.11)"/><path class="cls-41" d="M1698.87,455.26v4.59a1.51,1.51,0,0,0,1.5,1.5,1.53,1.53,0,0,0,1.5-1.5v-4.59a1.5,1.5,0,0,0-3,0Z" transform="translate(-69 -218.11)"/><path class="cls-41" d="M1697.85,469.55v5.62a1.5,1.5,0,1,0,3,0v-5.62a1.5,1.5,0,0,0-3,0Z" transform="translate(-69 -218.11)"/><path class="cls-41" d="M1697.85,484.87V491a1.5,1.5,0,0,0,3,0v-6.13a1.5,1.5,0,1,0-3,0Z" transform="translate(-69 -218.11)"/><path class="cls-41" d="M1697.85,497.13v4.59a1.5,1.5,0,0,0,3,0v-4.59a1.5,1.5,0,0,0-3,0Z" transform="translate(-69 -218.11)"/><path class="cls-41" d="M1697.85,510.4V517a1.5,1.5,0,0,0,3,0V510.4a1.5,1.5,0,0,0-3,0Z" transform="translate(-69 -218.11)"/><path class="cls-41" d="M1697.85,524.7v6.64a1.51,1.51,0,0,0,1.5,1.5,1.53,1.53,0,0,0,1.5-1.5V524.7a1.5,1.5,0,0,0-3,0Z" transform="translate(-69 -218.11)"/><path class="cls-41" d="M1697.85,541v5.62a1.5,1.5,0,0,0,3,0V541a1.5,1.5,0,0,0-3,0Z" transform="translate(-69 -218.11)"/><path class="cls-41" d="M1697.85,552.79v7.66a1.5,1.5,0,1,0,3,0v-7.66a1.5,1.5,0,0,0-3,0Z" transform="translate(-69 -218.11)"/><path class="cls-41" d="M1697.85,568.62v4.08a1.5,1.5,0,1,0,3,0v-4.08a1.5,1.5,0,1,0-3,0Z" transform="translate(-69 -218.11)"/><path class="cls-41" d="M1698.87,582.91V589a1.5,1.5,0,0,0,3,0v-6.13a1.5,1.5,0,1,0-3,0Z" transform="translate(-69 -218.11)"/><path class="cls-41" d="M1707.87,440v7.66a1.5,1.5,0,0,0,3,0V440a1.5,1.5,0,0,0-3,0Z" transform="translate(-69 -218.11)"/><path class="cls-41" d="M1707.87,453.26v4.59a1.51,1.51,0,0,0,1.5,1.5,1.53,1.53,0,0,0,1.5-1.5v-4.59a1.5,1.5,0,0,0-3,0Z" transform="translate(-69 -218.11)"/><path class="cls-41" d="M1706.85,467.55v5.62a1.5,1.5,0,1,0,3,0v-5.62a1.5,1.5,0,0,0-3,0Z" transform="translate(-69 -218.11)"/><path class="cls-41" d="M1706.85,482.87V489a1.5,1.5,0,0,0,3,0v-6.13a1.5,1.5,0,1,0-3,0Z" transform="translate(-69 -218.11)"/><path class="cls-41" d="M1706.85,495.13v4.59a1.5,1.5,0,0,0,3,0v-4.59a1.5,1.5,0,0,0-3,0Z" transform="translate(-69 -218.11)"/><path class="cls-41" d="M1706.85,508.4V515a1.5,1.5,0,0,0,3,0V508.4a1.5,1.5,0,0,0-3,0Z" transform="translate(-69 -218.11)"/><path class="cls-41" d="M1706.85,522.7v6.64a1.51,1.51,0,0,0,1.5,1.5,1.53,1.53,0,0,0,1.5-1.5V522.7a1.5,1.5,0,0,0-3,0Z" transform="translate(-69 -218.11)"/><path class="cls-41" d="M1706.85,539v5.62a1.5,1.5,0,0,0,3,0V539a1.5,1.5,0,0,0-3,0Z" transform="translate(-69 -218.11)"/><path class="cls-41" d="M1706.85,550.79v7.66a1.5,1.5,0,1,0,3,0v-7.66a1.5,1.5,0,0,0-3,0Z" transform="translate(-69 -218.11)"/><path class="cls-41" d="M1706.85,566.62v4.08a1.5,1.5,0,1,0,3,0v-4.08a1.5,1.5,0,1,0-3,0Z" transform="translate(-69 -218.11)"/><path class="cls-41" d="M1707.87,580.91V587a1.5,1.5,0,0,0,3,0v-6.13a1.5,1.5,0,1,0-3,0Z" transform="translate(-69 -218.11)"/><path class="cls-41" d="M1717.87,442v7.66a1.5,1.5,0,0,0,3,0V442a1.5,1.5,0,0,0-3,0Z" transform="translate(-69 -218.11)"/><path class="cls-41" d="M1717.87,455.26v4.59a1.51,1.51,0,0,0,1.5,1.5,1.53,1.53,0,0,0,1.5-1.5v-4.59a1.5,1.5,0,0,0-3,0Z" transform="translate(-69 -218.11)"/><path class="cls-41" d="M1716.85,469.55v5.62a1.5,1.5,0,1,0,3,0v-5.62a1.5,1.5,0,0,0-3,0Z" transform="translate(-69 -218.11)"/><path class="cls-41" d="M1716.85,484.87V491a1.5,1.5,0,0,0,3,0v-6.13a1.5,1.5,0,1,0-3,0Z" transform="translate(-69 -218.11)"/><path class="cls-41" d="M1716.85,497.13v4.59a1.5,1.5,0,0,0,3,0v-4.59a1.5,1.5,0,0,0-3,0Z" transform="translate(-69 -218.11)"/><path class="cls-41" d="M1716.85,510.4V517a1.5,1.5,0,0,0,3,0V510.4a1.5,1.5,0,0,0-3,0Z" transform="translate(-69 -218.11)"/><path class="cls-41" d="M1716.85,524.7v6.64a1.51,1.51,0,0,0,1.5,1.5,1.53,1.53,0,0,0,1.5-1.5V524.7a1.5,1.5,0,0,0-3,0Z" transform="translate(-69 -218.11)"/><path class="cls-41" d="M1716.85,541v5.62a1.5,1.5,0,0,0,3,0V541a1.5,1.5,0,0,0-3,0Z" transform="translate(-69 -218.11)"/><path class="cls-41" d="M1716.85,552.79v7.66a1.5,1.5,0,1,0,3,0v-7.66a1.5,1.5,0,0,0-3,0Z" transform="translate(-69 -218.11)"/><path class="cls-41" d="M1716.85,568.62v4.08a1.5,1.5,0,1,0,3,0v-4.08a1.5,1.5,0,1,0-3,0Z" transform="translate(-69 -218.11)"/><path class="cls-41" d="M1717.87,582.91V589a1.5,1.5,0,0,0,3,0v-6.13a1.5,1.5,0,1,0-3,0Z" transform="translate(-69 -218.11)"/><path class="cls-41" d="M1726.87,442v7.66a1.5,1.5,0,0,0,3,0V442a1.5,1.5,0,0,0-3,0Z" transform="translate(-69 -218.11)"/><path class="cls-41" d="M1726.87,455.26v4.59a1.51,1.51,0,0,0,1.5,1.5,1.53,1.53,0,0,0,1.5-1.5v-4.59a1.5,1.5,0,0,0-3,0Z" transform="translate(-69 -218.11)"/><path class="cls-41" d="M1725.85,469.55v5.62a1.5,1.5,0,1,0,3,0v-5.62a1.5,1.5,0,0,0-3,0Z" transform="translate(-69 -218.11)"/><path class="cls-41" d="M1725.85,484.87V491a1.5,1.5,0,0,0,3,0v-6.13a1.5,1.5,0,1,0-3,0Z" transform="translate(-69 -218.11)"/><path class="cls-41" d="M1725.85,497.13v4.59a1.5,1.5,0,0,0,3,0v-4.59a1.5,1.5,0,0,0-3,0Z" transform="translate(-69 -218.11)"/><path class="cls-41" d="M1725.85,510.4V517a1.5,1.5,0,0,0,3,0V510.4a1.5,1.5,0,0,0-3,0Z" transform="translate(-69 -218.11)"/><path class="cls-41" d="M1725.85,524.7v6.64a1.51,1.51,0,0,0,1.5,1.5,1.53,1.53,0,0,0,1.5-1.5V524.7a1.5,1.5,0,0,0-3,0Z" transform="translate(-69 -218.11)"/><path class="cls-41" d="M1725.85,541v5.62a1.5,1.5,0,0,0,3,0V541a1.5,1.5,0,0,0-3,0Z" transform="translate(-69 -218.11)"/><path class="cls-41" d="M1725.85,552.79v7.66a1.5,1.5,0,1,0,3,0v-7.66a1.5,1.5,0,0,0-3,0Z" transform="translate(-69 -218.11)"/><path class="cls-41" d="M1725.85,568.62v4.08a1.5,1.5,0,1,0,3,0v-4.08a1.5,1.5,0,1,0-3,0Z" transform="translate(-69 -218.11)"/><path class="cls-41" d="M1726.87,582.91V589a1.5,1.5,0,0,0,3,0v-6.13a1.5,1.5,0,1,0-3,0Z" transform="translate(-69 -218.11)"/><path class="cls-41" d="M1679.37,440v7.66a1.5,1.5,0,0,0,3,0V440a1.5,1.5,0,0,0-3,0Z" transform="translate(-69 -218.11)"/><path class="cls-41" d="M1679.37,453.26v4.59a1.51,1.51,0,0,0,1.5,1.5,1.53,1.53,0,0,0,1.5-1.5v-4.59a1.5,1.5,0,0,0-3,0Z" transform="translate(-69 -218.11)"/><path class="cls-41" d="M1678.35,467.55v5.62a1.5,1.5,0,1,0,3,0v-5.62a1.5,1.5,0,0,0-3,0Z" transform="translate(-69 -218.11)"/><path class="cls-41" d="M1678.35,482.87V489a1.5,1.5,0,0,0,3,0v-6.13a1.5,1.5,0,1,0-3,0Z" transform="translate(-69 -218.11)"/><path class="cls-41" d="M1678.35,495.13v4.59a1.5,1.5,0,0,0,3,0v-4.59a1.5,1.5,0,0,0-3,0Z" transform="translate(-69 -218.11)"/><path class="cls-41" d="M1678.35,508.4V515a1.5,1.5,0,0,0,3,0V508.4a1.5,1.5,0,0,0-3,0Z" transform="translate(-69 -218.11)"/><path class="cls-41" d="M1678.35,522.7v6.64a1.51,1.51,0,0,0,1.5,1.5,1.53,1.53,0,0,0,1.5-1.5V522.7a1.5,1.5,0,0,0-3,0Z" transform="translate(-69 -218.11)"/><path class="cls-41" d="M1678.35,539v5.62a1.5,1.5,0,0,0,3,0V539a1.5,1.5,0,0,0-3,0Z" transform="translate(-69 -218.11)"/><path class="cls-41" d="M1678.35,550.79v7.66a1.5,1.5,0,1,0,3,0v-7.66a1.5,1.5,0,0,0-3,0Z" transform="translate(-69 -218.11)"/><path class="cls-41" d="M1678.35,566.62v4.08a1.5,1.5,0,1,0,3,0v-4.08a1.5,1.5,0,1,0-3,0Z" transform="translate(-69 -218.11)"/><path class="cls-41" d="M1679.37,580.91V587a1.5,1.5,0,0,0,3,0v-6.13a1.5,1.5,0,1,0-3,0Z" transform="translate(-69 -218.11)"/><path class="cls-41" d="M1688.37,438v7.66a1.5,1.5,0,0,0,3,0V438a1.5,1.5,0,0,0-3,0Z" transform="translate(-69 -218.11)"/><path class="cls-41" d="M1688.37,451.26v4.59a1.51,1.51,0,0,0,1.5,1.5,1.53,1.53,0,0,0,1.5-1.5v-4.59a1.5,1.5,0,0,0-3,0Z" transform="translate(-69 -218.11)"/><path class="cls-41" d="M1687.35,465.55v5.62a1.5,1.5,0,1,0,3,0v-5.62a1.5,1.5,0,0,0-3,0Z" transform="translate(-69 -218.11)"/><path class="cls-41" d="M1687.35,480.87V487a1.5,1.5,0,0,0,3,0v-6.13a1.5,1.5,0,1,0-3,0Z" transform="translate(-69 -218.11)"/><path class="cls-41" d="M1687.35,493.13v4.59a1.5,1.5,0,0,0,3,0v-4.59a1.5,1.5,0,0,0-3,0Z" transform="translate(-69 -218.11)"/><path class="cls-41" d="M1687.35,506.4V513a1.5,1.5,0,0,0,3,0V506.4a1.5,1.5,0,0,0-3,0Z" transform="translate(-69 -218.11)"/><path class="cls-41" d="M1687.35,520.7v6.64a1.51,1.51,0,0,0,1.5,1.5,1.53,1.53,0,0,0,1.5-1.5V520.7a1.5,1.5,0,0,0-3,0Z" transform="translate(-69 -218.11)"/><path class="cls-41" d="M1687.35,537v5.62a1.5,1.5,0,0,0,3,0V537a1.5,1.5,0,0,0-3,0Z" transform="translate(-69 -218.11)"/><path class="cls-41" d="M1687.35,548.79v7.66a1.5,1.5,0,1,0,3,0v-7.66a1.5,1.5,0,0,0-3,0Z" transform="translate(-69 -218.11)"/><path class="cls-41" d="M1687.35,564.62v4.08a1.5,1.5,0,1,0,3,0v-4.08a1.5,1.5,0,1,0-3,0Z" transform="translate(-69 -218.11)"/><path class="cls-41" d="M1688.37,578.91V585a1.5,1.5,0,0,0,3,0v-6.13a1.5,1.5,0,1,0-3,0Z" transform="translate(-69 -218.11)"/><path class="cls-41" d="M1727.11,443v7.66a1.5,1.5,0,1,0,3,0V443a1.5,1.5,0,0,0-3,0Z" transform="translate(-69 -218.11)"/><path class="cls-41" d="M1727.11,456.26v4.59a1.51,1.51,0,0,0,1.5,1.5,1.53,1.53,0,0,0,1.5-1.5v-4.59a1.5,1.5,0,0,0-3,0Z" transform="translate(-69 -218.11)"/><path class="cls-41" d="M1727.11,583.91V590a1.5,1.5,0,0,0,3,0v-6.13a1.5,1.5,0,0,0-3,0Z" transform="translate(-69 -218.11)"/><path class="cls-41" d="M1736.11,443v7.66a1.5,1.5,0,1,0,3,0V443a1.5,1.5,0,0,0-3,0Z" transform="translate(-69 -218.11)"/><path class="cls-41" d="M1736.11,456.26v4.59a1.51,1.51,0,0,0,1.5,1.5,1.53,1.53,0,0,0,1.5-1.5v-4.59a1.5,1.5,0,0,0-3,0Z" transform="translate(-69 -218.11)"/><path class="cls-41" d="M1735.09,470.55v5.62a1.5,1.5,0,0,0,3,0v-5.62a1.5,1.5,0,1,0-3,0Z" transform="translate(-69 -218.11)"/><path class="cls-41" d="M1735.09,485.87V492a1.5,1.5,0,1,0,3,0v-6.13a1.5,1.5,0,0,0-3,0Z" transform="translate(-69 -218.11)"/><path class="cls-41" d="M1735.09,498.13v4.59a1.5,1.5,0,0,0,3,0v-4.59a1.5,1.5,0,1,0-3,0Z" transform="translate(-69 -218.11)"/><path class="cls-41" d="M1735.09,511.4V518a1.5,1.5,0,1,0,3,0V511.4a1.5,1.5,0,1,0-3,0Z" transform="translate(-69 -218.11)"/><path class="cls-41" d="M1735.09,525.7v6.64a1.51,1.51,0,0,0,1.5,1.5,1.53,1.53,0,0,0,1.5-1.5V525.7a1.5,1.5,0,0,0-3,0Z" transform="translate(-69 -218.11)"/><path class="cls-41" d="M1735.09,542v5.62a1.5,1.5,0,1,0,3,0V542a1.5,1.5,0,0,0-3,0Z" transform="translate(-69 -218.11)"/><path class="cls-41" d="M1735.09,553.79v7.66a1.5,1.5,0,0,0,3,0v-7.66a1.5,1.5,0,0,0-3,0Z" transform="translate(-69 -218.11)"/><path class="cls-41" d="M1735.09,569.62v4.08a1.5,1.5,0,0,0,3,0v-4.08a1.5,1.5,0,0,0-3,0Z" transform="translate(-69 -218.11)"/><path class="cls-41" d="M1736.11,583.91V590a1.5,1.5,0,0,0,3,0v-6.13a1.5,1.5,0,0,0-3,0Z" transform="translate(-69 -218.11)"/><path class="cls-41" d="M1735.85,442.62v7.66a1.5,1.5,0,1,0,3,0v-7.66a1.5,1.5,0,1,0-3,0Z" transform="translate(-69 -218.11)"/><path class="cls-41" d="M1735.85,455.89v4.6a1.5,1.5,0,1,0,3,0v-4.6a1.5,1.5,0,1,0-3,0Z" transform="translate(-69 -218.11)"/><path class="cls-41" d="M1735.85,583.55v6.13a1.51,1.51,0,0,0,1.5,1.5,1.53,1.53,0,0,0,1.5-1.5v-6.13a1.5,1.5,0,1,0-3,0Z" transform="translate(-69 -218.11)"/><path class="cls-41" d="M1744.85,442.62v7.66a1.5,1.5,0,1,0,3,0v-7.66a1.5,1.5,0,1,0-3,0Z" transform="translate(-69 -218.11)"/><path class="cls-41" d="M1744.85,455.89v4.6a1.5,1.5,0,1,0,3,0v-4.6a1.5,1.5,0,1,0-3,0Z" transform="translate(-69 -218.11)"/><path class="cls-41" d="M1743.83,470.19v5.62a1.5,1.5,0,0,0,3,0v-5.62a1.5,1.5,0,0,0-3,0Z" transform="translate(-69 -218.11)"/><path class="cls-41" d="M1743.83,485.51v6.13a1.5,1.5,0,0,0,3,0v-6.13a1.5,1.5,0,0,0-3,0Z" transform="translate(-69 -218.11)"/><path class="cls-41" d="M1743.83,497.77v4.59a1.5,1.5,0,1,0,3,0v-4.59a1.5,1.5,0,0,0-3,0Z" transform="translate(-69 -218.11)"/><path class="cls-41" d="M1743.83,511v6.64a1.51,1.51,0,0,0,1.5,1.5,1.53,1.53,0,0,0,1.5-1.5V511a1.5,1.5,0,1,0-3,0Z" transform="translate(-69 -218.11)"/><path class="cls-41" d="M1743.83,525.34V532a1.5,1.5,0,0,0,3,0v-6.64a1.5,1.5,0,0,0-3,0Z" transform="translate(-69 -218.11)"/><path class="cls-41" d="M1743.83,541.68v5.62a1.5,1.5,0,1,0,3,0v-5.62a1.5,1.5,0,1,0-3,0Z" transform="translate(-69 -218.11)"/><path class="cls-41" d="M1743.83,553.43v7.66a1.5,1.5,0,1,0,3,0v-7.66a1.5,1.5,0,1,0-3,0Z" transform="translate(-69 -218.11)"/><path class="cls-41" d="M1743.83,569.26v4.08a1.51,1.51,0,0,0,1.5,1.5,1.53,1.53,0,0,0,1.5-1.5v-4.08a1.5,1.5,0,0,0-3,0Z" transform="translate(-69 -218.11)"/><path class="cls-41" d="M1744.85,583.55v6.13a1.51,1.51,0,0,0,1.5,1.5,1.53,1.53,0,0,0,1.5-1.5v-6.13a1.5,1.5,0,1,0-3,0Z" transform="translate(-69 -218.11)"/><path class="cls-41" d="M935.14,255.36a68.36,68.36,0,0,0,7.43,6.05,1.51,1.51,0,0,0,2-.54,1.53,1.53,0,0,0-.54-2.05c-.62-.44-1.23-.88-1.83-1.34l-.42-.32c.11.09.08.06,0,0l-.26-.21-.88-.71c-1.17-1-2.3-2-3.41-3a1.5,1.5,0,0,0-2.12,2.12Z" transform="translate(-69 -218.11)"/><path class="cls-41" d="M926.94,273.39a102.32,102.32,0,0,0,10.5,2.56,1.54,1.54,0,0,0,1.85-1.05,1.51,1.51,0,0,0-1-1.84,102.55,102.55,0,0,1-10.51-2.57,1.5,1.5,0,0,0-.79,2.9Z" transform="translate(-69 -218.11)"/><path class="cls-41" d="M922.53,292.29h12.26a1.5,1.5,0,0,0,0-3H922.53a1.5,1.5,0,0,0,0,3Z" transform="translate(-69 -218.11)"/><path class="cls-41" d="M925.75,313.58l12.18-5a1.55,1.55,0,0,0,1.05-1.84,1.51,1.51,0,0,0-1.85-1L925,310.68a1.54,1.54,0,0,0-1,1.85,1.51,1.51,0,0,0,1.84,1.05Z" transform="translate(-69 -218.11)"/><path class="cls-41" d="M935.84,328.6c.31-.28.62-.56.94-.82l.45-.38.23-.19.14-.11.14-.1.29-.22.48-.34c.34-.24.69-.48,1-.7.68-.44,1.39-.84,2.1-1.22l1.06-.53.6-.27.27-.12.12-.05a1.54,1.54,0,0,0,1-1.85,1.5,1.5,0,0,0-1.84-1,31,31,0,0,0-9.18,5.82,1.51,1.51,0,0,0,0,2.12,1.53,1.53,0,0,0,2.12,0Z" transform="translate(-69 -218.11)"/><path class="cls-41" d="M945.58,342.4l7.62-6.31a1.5,1.5,0,0,0,0-2.12,1.55,1.55,0,0,0-2.12,0l-7.62,6.31a1.5,1.5,0,0,0,0,2.12,1.54,1.54,0,0,0,2.12,0Z" transform="translate(-69 -218.11)"/><path class="cls-41" d="M961.47,352.75l4.37-8.37a1.53,1.53,0,0,0-.54-2.05,1.51,1.51,0,0,0-2,.54l-4.37,8.36a1.5,1.5,0,1,0,2.59,1.52Z" transform="translate(-69 -218.11)"/><path class="cls-41" d="M977.48,359.21v-8.85a1.5,1.5,0,0,0-3,0v8.85a1.5,1.5,0,1,0,3,0Z" transform="translate(-69 -218.11)"/><path class="cls-41" d="M994.31,360.89q-1.21-5.53-2.75-11a1.5,1.5,0,1,0-2.89.8q1.53,5.44,2.75,11a1.5,1.5,0,0,0,1.84,1.05,1.52,1.52,0,0,0,1-1.84Z" transform="translate(-69 -218.11)"/><path class="cls-41" d="M1011.3,358.81a71.26,71.26,0,0,1-5.75-9.21,1.5,1.5,0,1,0-2.59,1.51,71.26,71.26,0,0,0,5.75,9.21,1.54,1.54,0,0,0,2,.54,1.51,1.51,0,0,0,.54-2.05Z" transform="translate(-69 -218.11)"/><path class="cls-41" d="M1028.69,352.79l-7.94-8.72a1.51,1.51,0,0,0-2.12,0,1.53,1.53,0,0,0,0,2.12l7.94,8.72a1.51,1.51,0,0,0,2.12,0,1.53,1.53,0,0,0,0-2.12Z" transform="translate(-69 -218.11)"/><path class="cls-41" d="M1042.53,341a38.93,38.93,0,0,0-9.35-7.85,1.5,1.5,0,1,0-1.51,2.59,34.66,34.66,0,0,1,4.58,3.26,37.63,37.63,0,0,1,4.16,4.12,1.5,1.5,0,0,0,2.12,0,1.54,1.54,0,0,0,0-2.12Z" transform="translate(-69 -218.11)"/><path class="cls-41" d="M1054,327.49a24.66,24.66,0,0,1-11.91-7.14c-1.32-1.42-3.43.7-2.12,2.12a27.61,27.61,0,0,0,13.23,7.92,1.51,1.51,0,0,0,.8-2.9Z" transform="translate(-69 -218.11)"/><path class="cls-41" d="M1060.11,308.45l-11.23-2.37a1.54,1.54,0,0,0-1.85,1,1.52,1.52,0,0,0,1,1.85l11.24,2.37a1.52,1.52,0,0,0,1.84-1,1.5,1.5,0,0,0-1.05-1.84Z" transform="translate(-69 -218.11)"/><path class="cls-41" d="M1060.4,290.64a78.91,78.91,0,0,1-10.54-.38,1.51,1.51,0,0,0-1.5,1.5,1.53,1.53,0,0,0,1.5,1.5,78.91,78.91,0,0,0,10.54.38,1.5,1.5,0,0,0,0-3Z" transform="translate(-69 -218.11)"/><path class="cls-41" d="M1060.65,270.83a90.85,90.85,0,0,0-10.53,3.5,1.55,1.55,0,0,0-1,1.85,1.51,1.51,0,0,0,1.85,1,90.22,90.22,0,0,1,10.53-3.5,1.5,1.5,0,1,0-.8-2.89Z" transform="translate(-69 -218.11)"/><path class="cls-41" d="M1050.71,252.5l-4.48,4.71-2.21,2.33c-.31.32-.61.64-.94.93l-.13.11-.19.14-.25.15s-.42.19-.16.09a1.54,1.54,0,0,0-1,1.85,1.52,1.52,0,0,0,1.85,1c2.06-.79,3.47-2.7,4.95-4.26l4.73-5a1.5,1.5,0,0,0-2.12-2.13Z" transform="translate(-69 -218.11)"/><path class="cls-41" d="M1040.34,239.74l-6.82,7.47a1.5,1.5,0,1,0,2.12,2.13l6.82-7.48a1.5,1.5,0,1,0-2.12-2.12Z" transform="translate(-69 -218.11)"/><path class="cls-41" d="M1026,229.46a39.68,39.68,0,0,1-4.85,9.59,1.51,1.51,0,0,0,.53,2,1.54,1.54,0,0,0,2.06-.54,42.68,42.68,0,0,0,5.15-10.31,1.5,1.5,0,0,0-1-1.84,1.53,1.53,0,0,0-1.85,1.05Z" transform="translate(-69 -218.11)"/><path class="cls-41" d="M1009.11,221.29l-1,6.76a19.27,19.27,0,0,1-.51,2.6,1.84,1.84,0,0,1-.38.74c.09-.12.08-.12,0,0s-.14.12,0,0c-.15.08-.15.09,0,0l-.27.07a1.5,1.5,0,1,0,.79,2.89c2.16-.46,2.87-2.75,3.16-4.66l1.17-7.64a1.55,1.55,0,0,0-1-1.85,1.52,1.52,0,0,0-1.85,1Z" transform="translate(-69 -218.11)"/><path class="cls-41" d="M992,219.2a37.23,37.23,0,0,0-.46,10.64,1.54,1.54,0,0,0,1.5,1.5,1.5,1.5,0,0,0,1.5-1.5,34.51,34.51,0,0,1,.35-9.84,1.54,1.54,0,0,0-1-1.85,1.51,1.51,0,0,0-1.84,1Z" transform="translate(-69 -218.11)"/><path class="cls-41" d="M974.39,222.67a27.17,27.17,0,0,0,4.17,11.48,1.53,1.53,0,0,0,2.05.54,1.51,1.51,0,0,0,.54-2.05,24.08,24.08,0,0,1-3.76-10,1.54,1.54,0,0,0-1.5-1.5,1.51,1.51,0,0,0-1.5,1.5Z" transform="translate(-69 -218.11)"/><path class="cls-41" d="M958.81,228.56a69.56,69.56,0,0,0,5.28,14,1.5,1.5,0,0,0,2.59-1.51,66,66,0,0,1-5-13.26,1.5,1.5,0,0,0-2.89.79Z" transform="translate(-69 -218.11)"/><path class="cls-41" d="M945.64,239.42a27.08,27.08,0,0,0,5.85,9.13,1.5,1.5,0,0,0,2.12-2.12c-.57-.59-1.12-1.2-1.63-1.84l-.18-.23,0,0-.39-.52q-.36-.51-.69-1a21.39,21.39,0,0,1-1.2-2.07q-.29-.54-.54-1.11l-.12-.26s-.16-.37-.1-.22l-.06-.16-.14-.33a1.53,1.53,0,0,0-1.84-1,1.51,1.51,0,0,0-1.05,1.84Z" transform="translate(-69 -218.11)"/></g></svg>